<?xml version="1.0" encoding="utf-8"?>
<!-- Generator: Adobe Illustrator 28.1.0, SVG Export Plug-In . SVG Version: 6.00 Build 0)  -->
<svg version="1.1" id="Layer_1" xmlns="http://www.w3.org/2000/svg" xmlns:xlink="http://www.w3.org/1999/xlink" x="0px" y="0px"
	 viewBox="0 0 1924 1077" style="enable-background:new 0 0 1924 1077;" xml:space="preserve">
<style type="text/css">
	.st0{fill:#8158A0;}
	.st1{fill:#714A70;}
	.st2{fill:#6B3A91;}
	.st3{fill:#502B7D;}
	.st4{fill:#674550;}
	.st5{fill:#090B0E;}
	.st6{fill:#180E25;}
	.st7{fill:#7D5084;}
	.st8{fill:#6A3A86;}
	.st9{fill:#20073D;}
	.st10{fill:#221027;}
	.st11{fill:#653771;}
	.st12{fill:#270C39;}
	.st13{display:none;}
	.st14{display:inline;fill:#B32B91;}
	.st15{display:inline;fill:#5F3795;}
	.st16{display:inline;fill:#BF2B5B;}
	.st17{display:inline;fill:#D6482E;}
	.st18{display:inline;fill:#302F8C;}
	.st19{display:inline;fill:#DE8735;}
	.st20{fill:#BF2B5B;}
	.st21{fill:#DE8735;}
	.st22{fill:#D6482E;}
	.st23{fill:url(#SVGID_1_);}
	.st24{fill:#6F1B5A;}
	.st25{fill:#8F172B;}
	.st26{fill:#780F36;}
	.st27{fill:#9C1B25;}
	.st28{fill:url(#SVGID_00000057111137684257446010000013312465338150245002_);}
	.st29{fill:url(#SVGID_00000083797037232649560030000005909788235995936907_);}
	.st30{fill:url(#SVGID_00000181794174094019522030000005856011812135131804_);}
	.st31{fill:url(#SVGID_00000180342514817299749200000008820123880617931955_);}
	.st32{fill:url(#SVGID_00000039098872983575048630000003485430388513230224_);}
	.st33{fill:#371753;}
	.st34{fill:url(#SVGID_00000085226185245806546590000016401441373186885512_);}
	.st35{fill:#AC1E23;}
	.st36{fill:url(#SVGID_00000081618175018906216800000001458252521835720079_);}
	.st37{fill:url(#SVGID_00000145050926878813271400000007515667337520783259_);}
	.st38{fill:#CE3D26;}
	.st39{fill:#1F1958;}
	.st40{fill:#2E2F8E;}
	.st41{fill:#2B2E7E;}
	.st42{fill:#2C3087;}
	.st43{fill:#2A2C78;}
	.st44{fill:url(#SVGID_00000170241012370424875820000016117568746398167482_);}
	.st45{fill:#27266D;}
	.st46{fill:#B32B91;}
	.st47{fill:#6E3092;}
</style>
<g>
	<g id="Background_00000163771419120030765380000017585180897548340373_">
		<rect x="-2.51" y="0.98" class="st0" width="1924" height="1077"/>
		<path class="st0" d="M777.36,0.61c-39.44,50.68,111.23,27.7,75.14,68.88c-7.44,8.49-26.65,7.48-31.94,10.52
			c-29.73,35.89-35.7,45.33-31.94,86.24c22.07,4.47,22.07,4.47,44.15,8.94c7.68,36.98,5.01,4.93,33.81-4.21c36.63,0,36.63,0,73.26,0
			c9.39,14.2,9.39,14.2,18.79,28.4c14.09-14.2,14.09-14.2,28.18-28.4c35.69,0,35.69,0,71.39,0c41.14,49.42-6.98,0.15,72.32-3.68
			c-1.56-9.4,2.12-26.63,0-33.65c-0.9-2.98-32.23-37.92-26.3-57.84c-77.42,1.36,2.19-36.43-31.94-75.19
			c57.61,0.01,115.22-0.02,172.83,0c-2.96,44.2-29.4,70.83-15.03,117.26c-19.14,2.4,13.11,11.92-13.15,22.09
			c25.21,15.58,13.56-7.66,30.06-1.05c2.8,1.12,14.28,27.01,13.15,32.6c-6.11,6.57-6.11,6.57-12.21,13.15
			c-12.1,4.01-47.68,15.32-53.54,20.51c-11.99,10.6,2.02,29.22,3.76,30.5c11.19,8.22,16.59-11.86,55.42-13.15
			c30.03-0.99,56.95,9.34,57.3,27.34c0.2,10.41-6.05,16.74-18.79,24.19c-10.42,6.1-49.54,18.67-63.87,21.03
			c-24.05,3.96-71.1-1.7-78.9,15.25c-4.33,9.41,13.85,47.98,16.91,61c1.34,5.71-1.97,8.99-1.88,9.47
			c0.33,1.66,14.07,19.05,7.51,32.6c-0.67,1.39-18.7,16.73-21.6,18.4c-9.08,5.06-50.13,17.46-53.54,21.56
			c-10.55,12.68,25.38,26.85,3.76,25.77c-37.44-32.19-120.28-60.05-129.62-100.44c-10.16-43.93,50.88-62.17-3.76-42.59
			c-42.66,15.29-139.27,55.67-146.53,84.66c-0.96,3.82-0.57,20.53,0,25.77c-17.24-2.63-61.25-12.75-71.39-19.46
			c-13.56-8.97-3.79-16.41-13.15-25.24c17.12-14.57,14.93-38.65,18.79-52.58c8.08-29.17,47.51-56.45-65.75-51.01
			c-0.47-1.58-0.47-1.58-0.94-3.16c-38.53-10.69-93.36-20.19-83.6-50.48c1.35-4.18,14.65-14.5,21.6-16.83
			c38.27-12.84,86.35,8.96,90.17,7.36c12.99-17.17,27.1-22.64-1.88-36.81c-10.32-5.05-64.27-18.85-62.93-23.66
			c0.52-1.86,10.79,0.88,3.76-12.62c30.92-22.35,38.36-52.92,39.45-80.98c-8.45-40.23-8.45-40.23-16.91-80.45
			C710.99,0.6,744.18,0.62,777.36,0.61z"/>
		<path class="st1" d="M136.77,0.95c-2.69,34.2,40.07,28.27,78.9,47.85c2.82,22.61,2.82,22.61,5.64,45.22
			c-50.44,30.76-48.26-6.21-91.11,2.63c-10.28,2.12-28.93,15.28-25.36,26.82c2.83,9.15,60.99,34.97,63.87,38.91
			c2.76,3.78,5.31,27.6,3.76,31.55c-32.66,28.42-53.19-5.99-89.23,7.89c-20.66,7.95-15.01,24.39-2.82,34.18
			c11.48,9.22,92.61,39.27,50.72,65.2c-31.47,19.48-48.02-9.79-83.6,0.53c-3.04,0.88-15.13,9.57-15.97,11.04
			c-17.07,30.11,50.86,43.01,84.54,56.79c6.53,10.69-34.48,24.93,40.39,45.75c1.6,16.57,74.11,35.84,76.08,40.49
			c-13.79,53.95-15.24,25.05-50.72,44.17c5.17,10.84,19.62,12.85,28.18,18.4c0.78,0.51-3.26,1.78-1.88,2.63
			c15.2,9.33,29.85,19.1,54.48,18.4c-3.68,0.72-6.09,1.65-10.33,1.05c-6.49,2.3,2.55,41.71-5.64,49.43
			c-9.5,2.87-101.41-37.97-109.9-0.53c-6.7,29.6,76.49,40.91,23.48,60.47c-40.03,14.77-43.86-12.69-78.9-10.52
			c-17.09,1.06-19.5,10.37-27.24,16.3c0.3,15.11,1.17,20.72,21.6,31.02c3.46,1.75,64.15,24.58,77.02,29.45
			c0.7,0.26,4.56-0.16,7.51,0c8.63,8.96,39.9,15.42,52.6,24.19c12.18-7.71,29.09-11.63,46.96-11.57c-0.47,1.05-0.47,1.05-0.94,2.1
			c-39.64-1.14-64.59,23.32-78.9,41.02c-26.69,33.02-27.93,65.13,1.88,97.81c-52.67-12.82-77.47-37.97-44.15-67.31
			c-62.58,6.85-111.27,30.54-102.38,68.36c-18.79-7.89-18.79-7.89-37.57-15.78c-0.61-284.65,0.45-569.31,0-853.96
			C44.1,0.87,90.44,1.05,136.77,0.95z"/>
		<path class="st1" d="M1817.88,0.95c34.44,0.13,68.88-0.1,103.32,0c-0.38,277.64,0.5,555.29,0,832.93
			c-28.2-3.56-52.84,7.07-70.45,17.88c-23.64-20.65-54.31-39.38-96.75-47.85c7.49-6.1,20.1-13.55,24.42-20.51
			c0.75-1.22,2.25-1.78,3.76-2.63c-19.72-24.71-19.72-24.71-39.45-49.43c47.43-18.14,47.43-18.14,94.87-36.28
			c34.33-15.95,34.8-27.43,36.63-28.92c5.42-4.4,17.72,0.8,18.79-8.41c34.42-5.54-10.72-35.6-38.51-19.46
			c-35.16-9.68-96.07,32.52-104.26,2.63c-6.58-24.01,49.88-21.93,41.33-52.58c-10.31-36.97-106.87-0.16-115.53-1.58
			c-11.43-1.87,2.43-41.73-5.64-44.17c-3.55-1.08-14.31,2.39-12.21-3.16c25.58,0.71,41.82-8.67,52.6-19.98
			c2.55,0.53,9.56-1.66,10.33-2.1c44.6-25.77,32.4-19.32-21.6-31.02c-43.55-52.1,57.23-34.64,58.24-68.36
			c25.36-9.47,25.36-9.47,50.72-18.93c0-14.72,0-14.72,0-29.45c1.35-2.27,52.88-15.58,61.05-19.46
			c31.76-15.07,20.97-53.57-30.06-50.48c-11.78,0.71-51.77,22.9-57.3-9.99c-6.88-40.96,101.87-46.13,69.51-80.98
			c-26.42-28.44-80.46,9.88-101.44-6.31c-29.29-22.61,53.36-57.67,69.51-76.77c8.45-2.1,8.45-2.1,16.91-4.21
			c-4.7-12.09-4.7-12.09-9.39-24.19c-6.68-4.38-8.3,5.71-14.09,5.78c-4.62,0.06-20.14-19.02-84.54,2.1
			c-28.5-13.62-15.72-33.61-14.09-52.06c9.62-7.9,103.61-40.6,105.2-44.17C1820.47,7.22,1816.54,4.6,1817.88,0.95z"/>
		<path class="st1" d="M1817.88,0.95c-1.34,3.66,2.59,6.28,1.88,7.89c-1.59,3.57-95.58,36.27-105.2,44.17
			c-1.63,18.45-14.41,38.44,14.09,52.06c64.39-21.12,79.92-2.04,84.54-2.1c5.79-0.08,7.41-10.16,14.09-5.78
			c4.7,12.09,4.7,12.09,9.39,24.19c-8.45,2.1-8.45,2.1-16.91,4.21c-16.15,19.1-98.8,54.16-69.51,76.77
			c20.98,16.19,75.02-22.13,101.44,6.31c32.37,34.85-76.38,40.02-69.51,80.98c5.52,32.89,45.51,10.7,57.3,9.99
			c51.02-3.09,61.82,35.41,30.06,50.48c-8.17,3.88-59.7,17.19-61.05,19.46c0,14.72,0,14.72,0,29.45
			c-25.36,9.47-25.36,9.47-50.72,18.93c-1.01,33.72-101.78,16.26-58.24,68.36c54,11.7,66.21,5.25,21.6,31.02
			c-0.78,0.45-7.78,2.63-10.33,2.1c-43.94-20.39-63.61-51.69-103.32-74.14c-0.53-2.73,13.05-5.66,16.91-13.15
			c9.2,3.48,10.6-12.35,1.88-20.51c-23.08-21.6-71.79,19.92-61.99-55.74c1.64-2.35,65.71-12.88,52.6-21.56
			c24.5-18.02-10.64-47.05-35.69-59.42c50.21-19.88,12.48-32.62,1.88-42.59c-14.96-14.07-29.8-28.2-37.57-44.17
			c5.91-9.32,3.81-13.35,0-22.09c15.82-11.9,42.1-17.28,60.11-27.87c-3.31-0.87-3.69-0.25-3.76-2.63
			c-0.35-12.71-7.36-24.77-9.39-37.33c57.51-16.18,98.8-12.65,75.14-42.59c0-1.86,5.27-0.5,5.64-1.58
			c0.68-2.01-32.36-32.59-39.45-33.13c3.89-2.21,3.44-2.64,9.39-4.21c10.36-2.73,3.55,8.15,5.64-15.78
			C1705.16,1.01,1761.53,0.73,1817.88,0.95z"/>
		<path class="st1" d="M279.55,0.95c-11.11,11.3,2.27,17.02,1.88,20.51c-0.47,4.14-25.12,16.74-30.06,30.5
			c-0.83,2.32,0.77,11.73-1.88,17.88c6.92,2.58,2.5,6.96,14.09,13.15c38.25,20.42,70.37,2.8,47.9,49.95
			c10.88,14.63,50.42,21.04,52.6,26.29c0.12,0.3-5.64,4.95-5.64,5.26c0.01,0.4,3.75,1.7,3.76,2.1c0.07,4.77-3.77,4.98-3.76,5.26
			c0.7,17.32,17.18,15.28,13.15,20.51c-16.91,19.98-16.91,19.98-33.81,39.96c-2.95,1.28-6.86,2.74-9.39,4.21
			c-0.72,0.42-7.89-0.42-16.91,6.84c-20.4,16.43,15.07,28.07,13.15,34.71c-1.99,6.9-99.31,49.39,37.57,76.77
			c0.58,20.33,3.69,31.74-19.72,48.9c-88.25-2.58-60.6,35.11-61.05,38.39c-0.39,2.82-24.35,30.27-24.42,33.65
			c-0.21,9.92,9.11-1.33,24.42-11.04c-21.2,18.89-41.7,38.4-71.39,53.64c-8.56-5.56-23.01-7.57-28.18-18.4
			c35.48-19.12,36.93,9.78,50.72-44.17c-1.97-4.65-74.48-23.92-76.08-40.49c-74.87-20.82-33.85-35.06-40.39-45.75
			c-33.68-13.78-101.61-26.68-84.54-56.79c0.84-1.47,12.93-10.16,15.97-11.04c35.57-10.31,52.13,18.96,83.6-0.53
			c41.89-25.93-39.24-55.98-50.72-65.2c-12.19-9.79-17.84-26.23,2.82-34.18c36.04-13.88,56.57,20.53,89.23-7.89
			c1.55-3.95-0.99-27.77-3.76-31.55c-2.88-3.94-61.04-29.77-63.87-38.91c-3.57-11.54,15.08-24.69,25.36-26.82
			c42.85-8.84,40.67,28.13,91.11-2.63c-2.82-22.61-2.82-22.61-5.64-45.22c-38.83-19.58-81.59-13.65-78.9-47.85
			C184.36,0.84,231.96,1,279.55,0.95z"/>
		<path class="st0" d="M1072.3,0.61c34.12,38.76-45.49,76.55,31.94,75.19c-5.93,19.93,25.4,54.86,26.3,57.84
			c2.12,7.02-1.56,24.25,0,33.65c-79.3,3.84-31.18,53.1-72.32,3.68c-35.69,0-35.69,0-71.39,0c-14.09,14.2-14.09,14.2-28.18,28.4
			c-9.39-14.2-9.39-14.2-18.79-28.4c-36.63,0-36.63,0-73.26,0c-28.81,9.13-26.13,41.19-33.81,4.21
			c-22.07-4.47-22.07-4.47-44.15-8.94c-3.77-40.9,2.21-50.35,31.94-86.24c5.29-3.04,24.5-2.03,31.94-10.52
			c36.09-41.19-114.58-18.2-75.14-68.88C875.68,0.58,973.99,0.59,1072.3,0.61z"/>
		<path class="st0" d="M1355.96,0.95c-52.71,17.05-41.24,34.32-30.06,61.52c1.31,3.19,5.55,2.43,5.64,2.63
			c2.68,6.5,1.08,13.07,3.76,19.46c15.73,37.49,11.04,12.82,58.24,9.99c-30.28,32.64,36.4,43.15,83.6,17.88
			c30.29-16.22-26.39-40.1-57.3-31.55c11.72-5.76,8.31-15.27,58.24-11.57c3.28,5.71,11.08,14.56,15.03,21.56
			c7.08,12.54,7.92,26.5,16.91,38.91c6.48,8.94,28.88,24.37,30.06,25.77c0.65,0.77,4.73,8.45,5.64,10.52
			c3.81,8.73,5.91,12.76,0,22.09c-9.5,2.3-21.2,10.03-28.18,7.36c42.22-28.4,2.24-60.74-61.05-48.38
			c-45.94,8.98-35.29,50.28-19.72,69.41c-56.41-5.04-68.11,6.59-103.32,24.19c-0.68,0.34-5.19-0.37-15.03,5.78
			c-0.56,0.35,0.48,2.34,0,2.63c-1.72,1.03-5.1,1.2-7.51,1.05c-0.34-18.01-27.27-28.34-57.3-27.34
			c-38.83,1.28-44.23,21.36-55.42,13.15c-1.74-1.28-15.75-19.9-3.76-30.5c5.86-5.18,41.44-16.5,53.54-20.51
			c6.11-6.57,6.11-6.57,12.21-13.15c1.13-5.59-10.35-31.48-13.15-32.6c-16.5-6.61-4.84,16.63-30.06,1.05
			c26.26-10.16-5.99-19.68,13.15-22.09c-14.37-46.43,12.06-73.06,15.03-117.26C1282.07,0.96,1319.02,0.93,1355.96,0.95z"/>
		<path class="st0" d="M677.98,0.95c8.45,40.23,8.45,40.23,16.91,80.45c-1.09,28.06-8.53,58.63-39.45,80.98
			c7.03,13.5-3.24,10.76-3.76,12.62c-1.33,4.81,52.62,18.62,62.93,23.66c28.98,14.17,14.87,19.64,1.88,36.81
			c-3.82,1.6-51.9-20.2-90.17-7.36c-6.95,2.33-20.26,12.65-21.6,16.83c-48.78-16.6-54.89-31.79-116.47-27.34
			c3.8-16.47,13.06-48.9-3.76-62.57c-18.88-15.36-83.9-14.19-97.69,7.36c-13.16,20.58,6.34,28.35,31.94,39.44
			c-3.29,4.94-35.09-8.06-37.57-9.47c-16.12-9.12-13.13-25.59-1.88-35.76c0.86-0.77,15.68-7.1,22.54-13.15
			c11.29-9.95,17.35-22.46,26.3-33.13c43.68,11.04,43.68,11.04,87.35,22.09c20.9-16.23,10.29-22.43,12.21-38.39
			c-6.99-1.19-5.39-3.48-5.64-3.68c8.22-0.49,45.16,16.27,47.9,15.78c8-9.23,20.68-37.06,15.97-45.22
			c3.18,0.29,11.92-0.24,13.15-1.58c1.74-1.88,6.6-33.55,0-42.07c-6.88-8.88-37.27-15.07-52.6-14.2c0-1.05,0-1.05,0-2.1
			C590.32,0.93,634.15,0.96,677.98,0.95z"/>
		<path class="st2" d="M546.49,0.95c0,1.05,0,1.05,0,2.1c-14.7,0.83-41.68,14.48-37.57,23.66c2.18,4.88,72.44,26.24,77.02,34.18
			c4.71,8.17-7.96,35.99-15.97,45.22c-2.74,0.5-39.68-16.26-47.9-15.78c-13.13-10.55-58.27-17.31-84.54,5.78
			c-5.42,4.76-8.49,13.12-9.39,14.2c-8.95,10.67-15.01,23.18-26.3,33.13c-6.86,6.05-21.69,12.37-22.54,13.15
			c-29.12-11.31-29.12-11.31-58.24-22.61c5.64-16.83,5.64-16.83,11.27-33.65c-11.49-4.55-71.77-22.26-75.14-26.29
			c-13.53-16.19,23.3-41.27,48.84-48.38c-9.77-13.83-27.69-9.34-7.51-24.71C381.17,0.87,463.83,0.98,546.49,0.95z"/>
		<path class="st2" d="M1639.62,0.95c1.88,7.89,1.88,7.89,3.76,15.78c-5.96,1.57-5.5,2-9.39,4.21c-2.06,1.17-7.92,2.59-7.51,4.73
			c0.36,1.88,33.11,19.56,41.33,29.97c23.65,29.95-17.63,26.41-75.14,42.59c2.04,12.57,9.04,24.63,9.39,37.33
			c-31,9.99-31,9.99-61.99,19.98c-1.17-1.39-23.58-16.82-30.06-25.77c-8.99-12.41-9.83-26.38-16.91-38.91
			c-3.95-7-11.75-15.85-15.03-21.56c-3.91-6.81-6.9-13.72-11.27-20.51c-0.12-0.18,3.42-1.33,1.88-3.68
			c33.51-14.58,74.17-25.64,101.44-44.17C1593.29,0.96,1616.46,0.92,1639.62,0.95z"/>
		<path class="st2" d="M1431.1,0.95c9.95,13.43,28.89,30.96,37.57,44.17c1.54,2.35-1.99,3.5-1.88,3.68
			c4.37,6.78,7.36,13.7,11.27,20.51c-49.93-3.7-46.51,5.81-58.24,11.57c-9.79,4.81-19.21,6.03-26.3,13.67
			c-47.2,2.83-42.5,27.49-58.24-9.99c-2.68-6.38-1.08-12.95-3.76-19.46c19.24-28.75,116.06-21.83,71.39-64.15
			C1412.32,0.95,1421.71,0.94,1431.1,0.95z"/>
		<path class="st0" d="M1402.93,0.95c44.68,42.33-52.15,35.41-71.39,64.15c-0.08-0.2-4.33,0.56-5.64-2.63
			c-11.19-27.21-22.66-44.48,30.06-61.52C1371.62,0.95,1387.27,0.94,1402.93,0.95z"/>
		<path class="st3" d="M1570.12,0.95c-27.27,18.53-67.93,29.59-101.44,44.17c-8.68-13.21-27.62-30.75-37.57-44.17
			C1477.44,0.97,1523.78,0.91,1570.12,0.95z"/>
		<path class="st1" d="M298.33,0.58c-20.17,15.38-2.26,10.88,7.51,24.71C280.3,32.4,243.47,57.47,257,73.67
			c3.37,4.04,63.66,21.74,75.14,26.29c-5.64,16.83-5.64,16.83-11.27,33.65c29.12,11.31,29.12,11.31,58.24,22.61
			c-11.25,10.16-14.24,26.63,1.88,35.76c-4.7,0-4.7,0-9.39,0c4.03-5.23-12.45-3.19-13.15-20.51c-0.01-0.28,3.83-0.49,3.76-5.26
			c-0.01-0.4-3.75-1.7-3.76-2.1c-0.01-0.31,5.76-4.96,5.64-5.26c-2.18-5.26-41.72-11.66-52.6-26.29
			c22.46-47.15-9.65-29.54-47.9-49.95c-11.59-6.19-7.17-10.57-14.09-13.15c2.65-6.15,1.05-15.56,1.88-17.88
			c4.94-13.76,29.59-26.35,30.06-30.5c0.4-3.49-12.99-9.21-1.88-20.51C285.81,0.57,292.07,0.58,298.33,0.58z"/>
		<path class="st4" d="M1649.02,0.95c-2.09,23.92,4.72,13.04-5.64,15.78c-1.88-7.89-1.88-7.89-3.76-15.78
			C1642.76,0.95,1645.89,0.94,1649.02,0.95z"/>
		<path class="st1" d="M1656.53,539.4c0.62,0.04,1.26-0.02,1.88,0c-2.1,5.55,8.66,2.08,12.21,3.16c8.06,2.44-5.8,42.3,5.64,44.17
			c8.66,1.42,105.22-35.39,115.53,1.58c8.55,30.65-47.91,28.57-41.33,52.58c8.19,29.89,69.1-12.31,104.26-2.63
			c27.79-16.15,72.93,13.92,38.51,19.46c-1.06,9.21-13.36,4.01-18.79,8.41c-1.84,1.49-2.3,12.97-36.63,28.92
			c-47.43,18.14-47.43,18.14-94.87,36.28c19.72,24.71,19.72,24.71,39.45,49.43c-1.51,0.85-3,1.41-3.76,2.63
			c-74.8,3.31-96.98,32.14-101.44,29.97c-26.44-70.61,44.92-84.18,46.96-90.44c9.87-30.31-147.53,29.73-150.29,46.8
			c-2.34-0.5-12.95,2.66-43.21-11.57c-9.83-4.62-20.98-10.22-22.54-17.88c0.63,0.71,9.3,9.72,11.27,6.84
			c-27.17-37.96,47.34-39.12,81.72-57.32c28.32-14.99-2.27-55.23-34.75-62.05c-0.53-0.11,2.81-2.94-8.45-2.1
			c-4.91,2.96-40.24,4.15-21.6-0.53c-19.08-6.76,4.64-20.63-1.88-29.97c35.44-21.68,8.72-35.54,11.27-43.12
			c9.04,5.89,50.53-13.99,68.57-17.88C1621.93,533.79,1649.53,547.82,1656.53,539.4z"/>
		<path class="st1" d="M364.08,584.63c4.77,1.38,10.5,3.57,15.03,5.26c12.67,4.73,54.87,27.93,80.78,32.6
			c-24.29,18.85-27.84,26.06-56.36,19.98c-6.76-2.99-44.02-16.96-49.78-16.83c-29.41,7.81-58.01,38.06-44.15,54.16
			c4.28,4.98,91.09,33.65,96.75,34.18c2.64,0.25,2.82-1.04,4.7-1.05c-1.85,13.17,2.49,24.13,7.51,36.81
			c-73.42-5.6-111.7,25.73-105.2,64.15c-13.15,2.63-13.15,2.63-26.3,5.26c-41.69-25.14-79.91-57.78-28.18-88.34
			c0.47-1.05,0.47-1.05,0.94-2.1c-17.88-0.06-34.78,3.86-46.96,11.57c-12.7-8.77-43.97-15.23-52.6-24.19
			c-2.95-0.16-6.82,0.26-7.51,0c-12.87-4.86-73.56-27.7-77.02-29.45c-20.43-10.31-21.31-15.91-21.6-31.02
			c7.74-5.93,10.15-15.24,27.24-16.3c35.04-2.17,38.87,25.28,78.9,10.52c53.01-19.56-30.19-30.87-23.48-60.47
			c8.48-37.44,100.4,3.39,109.9,0.53c8.19-7.72-0.85-47.12,5.64-49.43c4.24,0.59,6.65-0.33,10.33-1.05
			c2.36-0.46,10.3-0.37,13.15-1.05c23.63,3.99,25.19-10.84,49.78-1.05c1.06,0.42,1.58,3.38,7.51,6.31c1.5,0.74,3.61-1.13,3.76-1.05
			c30.32,16.55,1.83,11.93,14.09,31.02C334.34,585.33,354.16,581.77,364.08,584.63z"/>
		<path class="st5" d="M1032.85,692.95c-13.53,21.6-74.41,47.1-112.71,55.21c21.6,12.62,21.6,12.62,43.21,25.24
			c-10.61,2.79-17.81,6.7-26.3,11.04c-31.6,16.17-42.07,23.59-59.17,46.27c-14.74-6.8-86.6-43.92-89.23-49.95
			c-7.4-16.94,27.63-22.55,28.18-29.97c2.83,1.03,3.58,1.19,4.7,3.16c24.59-9.75,72.32-42.21,84.54-47.33
			c21.28-8.92,63.73-13.17,79.84-27.87c27.79-25.35-2.36-45.66-5.64-52.06c0.4-1.46,26.29,11.92,28.18,13.15
			C1032.65,655.54,1045.82,672.24,1032.85,692.95z"/>
		<path class="st6" d="M1044.12,694c-9.94,9.11-15.65,11.54-3.76,10.52c-18.14,20.09-11.13,38.96,13.15,55.74
			c59.01,40.77,119.85,12.73,175.65,11.57c1.28-0.03,5.83,2.6,22.54,0c30.34,5.43,62.1,7.93,93.93,6.31
			c2.62,3.6,12.42,8.27,14.09,9.47c1.08,1.43-3.18,3.83,5.64,5.26c1.53,1.61,2.31,3.66,5.64,4.21
			c-16.42,15.59-29.99,33.23-29.12,51.53c-1.94,0.82-33.48-16.58-36.63-17.88c3.15-23.06-31.79-43.95-71.39-47.33
			c-64.69-5.51-121.66,17.85-156.86,46.27c-23.18-20.33-64.39-28.53-102.38-37.33c10.8-11.31,10.8-11.31,21.6-22.61
			c-22.15,1.61-40.15,8.79-59.17,14.72c8.49-4.35,15.69-8.26,26.3-11.04c-21.6-12.62-21.6-12.62-43.21-25.24
			c38.3-8.12,99.18-33.61,112.71-55.21C1038.48,693.48,1038.48,693.48,1044.12,694z"/>
		<path class="st2" d="M604.54,244.94c-9.76,30.29,45.07,39.8,83.6,50.48c0.47,1.58,0.47,1.58,0.94,3.15
			c-6.58,19.19-6.58,19.19-13.15,38.39c-17.85-3.94-17.85-3.94-35.69-7.89c-20.59-2.4-16.45-8.45-39.45-10.52
			c-5.5-15.94-40.5-6.61-56.36,0.53c5.33,2.86-5.43,7.47-7.51,10.52c-6.31,9.25-10.54,30.16-3.76,38.91
			c-4.45,2.18-41.44,24.52-41.33,26.29c0.02,0.28,5.59,0.73,5.64,4.73c-7.79,8.26-8.25,19.69,0,27.87
			c8.22,8.15,86.12,34.66,90.17,32.6c0.08-1.26,1.04-3.68,1.88-4.73c84.34-5.96,60.1,27.73,107.08,38.91
			c-0.66,24.63,58.09,39.97,95.81,36.81c-24.37,10.63-50.32,19.63-71.39,32.6c-4.67-6.15-16.07-12.55-28.18-13.67
			c0.49-6.54-32.07-6.65-40.39-5.26c-20.34,3.4-31.32,20.4-29.12,31.55c-0.13,0.15-0.2,1.07-1.88,3.16
			c-5.41,6.69-9.31,17.01-15.03,24.19c-20.91-8.04-44.34-14.45-65.75-22.09c4.76,0.36,8.96,1.3,10.33,1.05
			c69.3-53.21,16.03-57.75-19.72-82.03c-6.44-4.37-5.82-12.38-33.81-26.29c-0.57-0.28-3.12-4.47-8.45-6.31
			c-22.09-7.62-38.24-0.93-57.3,1.58c-17.67,23.35-32.32,47.16-45.09,71.51c-2.49,3.21-11.98,5.53-13.15,6.84
			c-31.47-11.04-31.47-11.04-62.93-22.09c-10.53,5.01-21.98,9.58-34.75,12.62c-2.85,0.68-10.79,0.59-13.15,1.05
			c-24.63,0.69-39.28-9.07-54.48-18.4c-1.38-0.85,2.66-2.12,1.88-2.63c29.69-15.23,50.18-34.75,71.39-53.64
			c10.11-6.41,19.37-13.32,31.94-18.4c-41.11-17.92-22.22-45.97,31-36.28c4.95-3.85,32.38-27.23,32.87-28.92
			c0.42-1.45-4.12-23.17-1.88-29.45c-91.96-14.22-100.02-42.29-30.06-76.77c-26.59-12.45-39.31-20.68-16.91-38.39
			c2.54-1.47,6.44-2.93,9.39-4.21c42.74,14.72,42.74,14.72,85.47,29.45c2.76-0.67,5.67-0.86,6.57-1.05
			c-8.84,2.82,23.3,17.45,25.36,17.88c39.88,8.3,41.09-38.21-4.7-28.4c14.09-11.44,3.5-20.03,9.39-32.6
			c4.39,1.37,7.94,2.81,12.21,4.21c3.26-1.1,14.29-4.09,15.97-4.21C549.65,213.15,555.76,228.34,604.54,244.94z"/>
		<path class="st0" d="M1228.22,295.42c0.05,6.73,1.07,15.05,3.76,21.56c12.8,31.04,15.28,11.4,54.48,9.99
			c-2.94,8.78-10.42,21.08-7.51,29.97c4.68,14.3,15.68,13.01,35.69,8.94c-0.52,7.81,5.24,19.57,16.91,24.19
			c-32.6,12.9-16.22,50.27,0,67.31c-24.57-6.3-73.28-1.05-80.78,15.25c-3.66,7.97,13.58,11.23,26.3,29.45
			c1.38,1.97-1.98,3-1.88,3.16c0.36,0.56,4.81,0.68,5.64,2.1c5.69,9.81-0.24,8.95,0,9.47c0.5,1.06,7.39,4.93,7.51,5.26
			c0.1,0.27-3.85,1.83-3.76,2.1c0.27,0.85,3.5,0.2,3.76,1.05c0.26,0.87-1.43,9.1,5.64,16.83c-19.31,21.78-29.43,5.71-31.94,15.25
			c-11.02-2.77-22.39-2.01-33.81,0c-33.94-11.54-73.8-19.3-90.17-24.19c27.9-4.13,73.92-9.21,82.66-27.87
			c14.72-31.42-53.66-49.04-96.75-29.97c-26.97,11.94-1.34,12.2-6.57,22.09c-4.01-6.54-10.24-12.14-16.91-17.88
			c21.62,1.08-14.31-13.09-3.76-25.77c3.41-4.1,44.46-16.49,53.54-21.56c2.91-1.67,20.93-17.01,21.6-18.4
			c6.55-13.55-7.19-30.94-7.51-32.6c-0.09-0.47,3.22-3.76,1.88-9.47c-3.06-13.02-21.24-51.59-16.91-61
			C1157.12,293.71,1204.17,299.37,1228.22,295.42z"/>
		<path class="st0" d="M820.57,446.86c1.53,13.99,20.89,51.09-7.51,75.19c-8.44,7.16-14.15,6.43-15.03,6.84
			c-8.64,1,8.37-11.44,11.27-19.46c20.82-57.54-111.61-56.65-112.71-15.25c-46.98-11.19-22.74-44.87-107.08-38.91
			c11.6-14.49,19.26-48.9,0-61.52c-21.81-14.3-76.45-10.76-92.05,5.78c-0.05-4-5.62-4.45-5.64-4.73
			c-0.12-1.77,36.88-24.11,41.33-26.29c-6.78-8.75-2.56-29.66,3.76-38.91c2.08-3.05,12.84-7.66,7.51-10.52
			c15.85-7.14,50.86-16.46,56.36-0.53c-44.66-4.01-66.66,25.65-63.87,28.92c31.54,2.73,78.87,26.21,83.6,26.82
			c22.22,2.86,5.22-34.95,19.72-45.22c17.85,3.94,17.85,3.94,35.69,7.89c6.57-19.19,6.57-19.19,13.15-38.39
			c113.26-5.44,73.83,21.84,65.75,51.01c-3.86,13.93-1.67,38.02-18.79,52.58c9.36,8.83-0.41,16.27,13.15,25.24
			C759.32,434.11,803.33,444.22,820.57,446.86z"/>
		<path class="st2" d="M1333.42,240.73c5.79,5.77,16.18-1.1,31.94,16.3c15.37,16.98,7.08,17.91,7.51,18.93
			c0.45,1.03,5.22,0.02,5.64,1.05c0.74,1.84-10.14,2.67,1.88,4.21c-7.92,4.39,14.43,17.69,7.51,18.93c11.88,1.5,1.77,2.85,1.88,3.16
			c0.29,0.85,3.48,0.2,3.76,1.05c0.05,0.16-2.86,0.79-1.88,3.16c1.39,3.36,13.1,19.06,11.27,21.03
			c-0.78,0.84-13.78-4.76-11.27,13.67c-16.05,5.62,6.84,33.6,15.03,41.02c2.35,2.13,26.21,9.55,7.51,12.09
			c-16.69-14.08-59.43-14.45-82.66-5.26c-11.67-4.62-17.42-16.38-16.91-24.19c12.41-2.53,71.39-19.08,60.11-28.4
			c1.4,0.74,3.77,0.78,4.7,3.16c4.15-1.16-7.65-27.12-31.94-30.5c-30.36-4.23-43.9,8.59-46.02,9.47c-9.7,4-11.72,7.77-15.03,7.36
			c-39.2,1.41-41.67,21.05-54.48-9.99c-2.69-6.51-3.71-14.83-3.76-21.56c14.33-2.36,53.45-14.93,63.87-21.03
			c27.15,11.23,38.66-15.42,26.3-25.24c0.48-0.29-0.56-2.28,0-2.63C1328.23,240.36,1332.74,241.07,1333.42,240.73z"/>
		<path class="st0" d="M1292.09,274.38c12.73-7.45,18.98-13.78,18.79-24.19c2.41,0.15,5.8-0.02,7.51-1.05
			C1330.75,258.96,1319.24,285.62,1292.09,274.38z"/>
		<path class="st2" d="M1436.74,216.24c0.3,0.37,9.21,5.02,11.27,5.26c2.58,8.62,16.58,19.33,5.64,26.29
			c-40.74,3.57-14.17,57.31,41.33,14.72c44.15-15.25,44.15-15.25,88.29-30.5c10.6,9.97,48.33,22.71-1.88,42.59
			c25.05,12.37,60.19,41.4,35.69,59.42c-8.9,6.55-50.87,14.14-65.75,18.4c6.57,13.69-5.4,37.06,9.39,48.38
			c16.44,12.57,80.28-0.85,63.87,31.02c-3.85,7.49-17.44,10.42-16.91,13.15c39.71,22.45,59.38,53.75,103.32,74.14
			c-10.78,11.32-27.02,20.69-52.6,19.98c-0.62-0.02-1.26,0.04-1.88,0c-23.34-1.34-26.2-6.85-46.02-11.57
			c-32.41,12.09-32.41,12.09-64.81,24.19c-2.55,7.58,24.17,21.44-11.27,43.12c-14.45,8.84-74.98,25.35-75.14,27.87
			c46.38,38.24,51.98,11.49,107.08,4.73c32.48,6.82,63.07,47.06,34.75,62.05c-34.38,18.19-108.89,19.35-81.72,57.32
			c-1.97,2.89-10.64-6.12-11.27-6.84c-17.52-19.66-1.2-48.18,24.42-63.63c8.13-4.9,37.19-12.59,31.94-19.98
			c-5.61-7.89-80.17,13.55-98.62,15.25c-4.68-0.88-13.88-34.66-23.48-53.64c0.94,0,0.94,0,1.88,0
			c25.59-8.14,71.11-18.72,84.54-34.18c9.62-11.08,11.79-28.97-5.64-38.39c4.23-5.18-8.15-13-11.27-17.35
			c-4.38-6.11-15.24-26.55-16.91-28.4c-1.22-1.35-7.27-3.44-7.51-3.68c-0.32-0.31-1.11-4.75-3.76-6.84
			c-34.95-27.5-90.5-11.75-93.93,17.88c-3.69,2.7-4.57-0.82-11.27,1.58c-23.98,8.59-45.62,21.58-41.33,38.39
			c0.69,2.7,37.88,47.5,41.33,49.43c1.64,0.92,3.66,0.46,5.64,0.53c-38.27,27.74-28.69,19.2-61.99,34.71
			c-1.17-8.17,0.66-15.95,0-24.19c-0.09-1.15,4.74-2.31,1.88-5.78c-1.12-1.36-32.16-17.79-37.57-20.51
			c2.65-6.44-12.52-21.2-24.42-24.19c2.51-9.54,12.63,6.54,31.94-15.25c-7.07-7.72-5.38-15.96-5.64-16.83
			c-0.25-0.85-3.48-0.2-3.76-1.05c-0.09-0.28,3.85-1.84,3.76-2.1c-0.12-0.33-7.02-4.2-7.51-5.26c-0.24-0.51,5.69,0.34,0-9.47
			c-0.83-1.43-5.27-1.55-5.64-2.1c-0.1-0.16,3.25-1.18,1.88-3.15c-12.72-18.22-29.96-21.48-26.3-29.45
			c7.5-16.3,56.2-21.55,80.78-15.25c0.89,0.93,0.63,4.51,4.7,4.21c42.49-11.01,114.8-35.16,77.96-66.26
			c18.69-2.54-5.16-9.97-7.51-12.09c-8.19-7.42-31.08-35.4-15.03-41.02c-2.51-18.43,10.49-12.83,11.27-13.67
			c1.83-1.98-9.88-17.68-11.27-21.03c-0.98-2.36,1.93-2.99,1.88-3.16c-0.28-0.85-3.47-0.2-3.76-1.05c-0.1-0.31,10.01-1.65-1.88-3.16
			c6.92-1.24-15.43-14.54-7.51-18.93c-12.02-1.54-1.14-2.36-1.88-4.21c-0.41-1.03-5.19-0.02-5.64-1.05
			c-0.44-1.02,7.86-1.95-7.51-18.93c-15.76-17.4-26.15-10.53-31.94-16.3C1368.63,222.83,1380.33,211.21,1436.74,216.24z"/>
		<path class="st7" d="M1583.27,232.32c-44.15,15.25-44.15,15.25-88.29,30.5c-10.91-6.68-22.97-16.33-41.33-14.72
			c10.94-6.96-3.06-17.67-5.64-26.29c21-7.07,54.66-16.3,69.51-26.29c6.98,2.67,18.68-5.06,28.18-7.36
			C1553.47,204.12,1568.31,218.24,1583.27,232.32z"/>
		<path class="st1" d="M1624.6,432.13c16.41-31.87-47.44-18.45-63.87-31.02c-14.8-11.32-2.83-34.69-9.39-48.38
			c14.88-4.27,56.85-11.86,65.75-18.4c13.11,8.68-50.96,19.21-52.6,21.56c-9.8,75.66,38.91,34.14,61.99,55.74
			C1635.19,419.78,1633.79,435.61,1624.6,432.13z"/>
		<path class="st1" d="M1545.7,166.06c-0.9-2.07-4.99-9.75-5.64-10.52c31-9.99,31-9.99,61.99-19.98c0.07,2.38,0.44,1.76,3.76,2.63
			C1587.8,148.78,1561.51,154.16,1545.7,166.06z"/>
		<path class="st1" d="M1667.8,55.63c-8.22-10.41-40.97-28.09-41.33-29.97c-0.41-2.14,5.45-3.56,7.51-4.73
			c7.09,0.54,40.13,31.12,39.45,33.13C1673.08,55.13,1667.8,53.78,1667.8,55.63z"/>
		<path class="st7" d="M380.99,191.98c2.48,1.41,34.28,14.41,37.57,9.47c3.2,1.39,39.15,15.09,41.33,15.78
			c-5.9,12.57,4.7,21.16-9.39,32.6c-1.27,1.03-19.31,10.23-20.66,10.52c-0.91,0.19-3.81,0.38-6.57,1.05
			c-42.74-14.72-42.74-14.72-85.47-29.45c16.91-19.98,16.91-19.98,33.81-39.96C376.29,191.98,376.29,191.98,380.99,191.98z"/>
		<path class="st1" d="M328.39,236.52c-22.4,17.7-9.68,25.94,16.91,38.39c-69.96,34.48-61.9,62.55,30.06,76.77
			c-2.25,6.27,2.3,27.99,1.88,29.45c-0.49,1.69-27.93,25.07-32.87,28.92c-53.21-9.69-72.1,18.36-31,36.28
			c-12.56,5.08-21.83,11.99-31.94,18.4c-15.31,9.72-24.63,20.96-24.42,11.04c0.07-3.39,24.03-30.84,24.42-33.65
			c0.45-3.27-27.2-40.97,61.05-38.39c23.41-17.17,20.31-28.57,19.72-48.9c-136.88-27.38-39.57-69.87-37.57-76.77
			c1.92-6.64-33.55-18.28-13.15-34.71C320.49,236.1,327.66,236.94,328.39,236.52z"/>
		<path class="st0" d="M1517.52,195.51c-14.85,9.99-48.51,19.23-69.51,26.29c-2.07-0.23-10.97-4.88-11.27-5.26
			c-15.57-19.13-26.22-60.43,19.72-69.41C1519.76,134.76,1559.74,167.11,1517.52,195.51z"/>
		<path class="st0" d="M1393.53,94.55c7.09-7.64,16.51-8.86,26.3-13.67c30.91-8.55,87.58,15.33,57.3,31.55
			C1429.93,137.7,1363.25,127.19,1393.53,94.55z"/>
		<path class="st0" d="M488.07,217.59c-1.68,0.12-12.7,3.1-15.97,4.21c-4.27-1.4-7.82-2.83-12.21-4.21
			c-2.18-0.68-38.13-14.39-41.33-15.78c-25.6-11.09-45.1-18.86-31.94-39.44c13.79-21.55,78.81-22.72,97.69-7.36
			C501.12,168.7,491.87,201.13,488.07,217.59z"/>
		<path class="st0" d="M585.75,60.89c-4.58-7.94-74.84-29.3-77.02-34.18c-4.11-9.19,22.87-22.83,37.57-23.66
			c15.33-0.87,45.72,5.31,52.6,14.2c6.6,8.52,1.74,40.19,0,42.07C597.67,60.65,588.93,61.18,585.75,60.89z"/>
		<path class="st0" d="M521.88,90.34c0.25,0.2-1.35,2.49,5.64,3.68c-1.92,15.96,8.69,22.15-12.21,38.39
			c-43.68-11.04-43.68-11.04-87.35-22.09c0.9-1.07,3.97-9.43,9.39-14.2C463.61,73.03,508.75,79.79,521.88,90.34z"/>
		<path class="st1" d="M1566.36,627.75c-55.1,6.76-60.7,33.5-107.08-4.73c0.16-2.52,60.69-19.03,75.14-27.87
			c6.52,9.34-17.21,23.21,1.88,29.97c-18.63,4.67,16.69,3.48,21.6,0.53C1569.17,624.81,1565.83,627.63,1566.36,627.75z"/>
		<path class="st1" d="M1656.53,539.4c-7,8.42-34.6-5.62-42.27-5.26c-18.04,3.89-59.53,23.77-68.57,17.88
			c32.41-12.09,32.41-12.09,64.81-24.19C1630.33,532.55,1633.19,538.06,1656.53,539.4z"/>
		<path class="st3" d="M403.53,642.47c17.53,7.77,39.93,24.24,60.11,31.55c-35.23,7.43-49.48,16.72-52.6,38.91
			c-1.88,0.01-2.06,1.3-4.7,1.05c-5.66-0.53-92.46-29.2-96.75-34.18c-13.86-16.1,14.74-46.35,44.15-54.16
			C359.51,625.51,396.77,639.47,403.53,642.47z"/>
		<path class="st3" d="M471.16,616.18c3.9,1.55,27.33,11.55,29.12,11.57c14.91,0.2,0.41-1.32,10.33-5.26
			c-1.84,28.35-25.81,37.67-30.06,46.27c-10.19,6.76-14.17,4.68-16.91,5.26c-20.19-7.31-42.58-23.78-60.11-31.55
			c28.52,6.08,32.06-1.13,56.36-19.98C463.35,619.8,465.69,615.95,471.16,616.18z"/>
		<path class="st2" d="M497.46,474.2c-39.41-4.92-57.32,4.95-71.39,24.19c-7.6,10.4-11.83,26.47-11.27,37.86
			c-35.43,6.66-51.06,32.3-26.3,48.38c-8.01,0.44-16.91,0.81-9.39,5.26c-4.53-1.69-10.26-3.88-15.03-5.26
			c-0.66-10.68,0.77-27.13,9.39-36.81c1.17-1.31,10.66-3.63,13.15-6.84c12.77-24.35,27.42-48.16,45.09-71.51
			c19.06-2.51,35.21-9.2,57.3-1.58C494.34,469.73,496.89,473.92,497.46,474.2z"/>
		<path class="st1" d="M373.47,547.82c-8.63,9.68-10.05,26.13-9.39,36.81c-9.92-2.86-29.74,0.71-13.15-11.04
			c-12.26-19.09,16.23-14.48-14.09-31.02c-0.15-0.08-2.26,1.79-3.76,1.05c-5.93-2.93-6.46-5.89-7.51-6.31
			c-24.59-9.79-26.15,5.05-49.78,1.05c12.78-3.04,24.23-7.61,34.75-12.62C342.01,536.78,342.01,536.78,373.47,547.82z"/>
		<path class="st8" d="M388.5,584.63c2.97,1.93,69.57,28.22,74.2,29.45c3.48,0.92,4.97,1.44,8.45,0c-0.22,0.66,0.1,1.42,0,2.1
			c-5.47-0.23-7.81,3.62-11.27,6.31c-25.91-4.68-68.11-27.87-80.78-32.6C371.6,585.44,380.49,585.07,388.5,584.63z"/>
		<path class="st9" d="M1015.94,633c7.71,7.34,38.06,21.7,41.33,25.24c15.03,16.31,0.79,22.98-13.15,35.76
			c-5.64-0.53-5.64-0.53-11.27-1.05c12.97-20.71-0.2-37.41-24.42-53.11c-1.89-1.22-27.78-14.6-28.18-13.15
			c-1.88-3.67-4.01-5.17,3.76-7.36C995.47,622.99,1007.7,627.04,1015.94,633z"/>
		<path class="st6" d="M1040.36,704.52c-11.89,1.02-6.18-1.41,3.76-10.52c13.94-12.77,28.18-19.45,13.15-35.76
			c1.64-5.98,20.87,8.86,16.91,20.51C1071.97,685.24,1045.65,698.66,1040.36,704.52z"/>
		<path class="st0" d="M531.27,500.49c35.75,24.28,89.03,28.82,19.72,82.03c-1.37,0.25-5.57-0.69-10.33-1.05
			c-9.11-0.68-24.33-5.27-45.09-6.31c-0.62-0.03-1.26,0.02-1.88,0c13.62-28.11-31.74-47.78-78.9-38.91
			c-0.56-11.39,3.67-27.46,11.27-37.86C458.61,500.41,522.01,531.23,531.27,500.49z"/>
		<path class="st0" d="M798.03,528.89c-5.12,2.35-5.37,1.99-5.64,2.1c-37.72,3.16-96.46-12.18-95.81-36.81
			c1.1-41.41,133.54-42.29,112.71,15.25C806.4,517.45,789.39,529.89,798.03,528.89z"/>
		<path class="st0" d="M589.51,455.27c-0.84,1.05-1.8,3.47-1.88,4.73c-4.05,2.05-81.95-24.45-90.17-32.6
			c-8.25-8.18-7.79-19.61,0-27.87c15.6-16.55,70.24-20.09,92.05-5.78C608.77,406.37,601.11,440.78,589.51,455.27z"/>
		<path class="st3" d="M415.74,381.65c9.18-0.95,23.83,0.41,31.94,3.16c29.87,10.12,6.49,46.85-1.88,62.05
			c-33.34-11.31-33.34-11.31-66.69-22.61C386.69,412.52,390.99,384.2,415.74,381.65z"/>
		<path class="st0" d="M600.78,318.55c23,2.06,18.86,8.12,39.45,10.52c-14.51,10.27,2.49,48.09-19.72,45.22
			c-4.72-0.61-52.05-24.09-83.6-26.82C534.12,344.2,556.12,314.54,600.78,318.55z"/>
		<path class="st2" d="M696.59,580.42c-11.45,10.94-18.41,25.33-20.66,37.86c-0.51,2.83,1.27,16.93-0.94,17.88
			c-20.42-12.4-43.74-23.06-68.57-32.6c5.72-7.17,9.62-17.5,15.03-24.19C651.87,575,664.85,569.44,696.59,580.42z"/>
		<path class="st0" d="M497.46,474.2c27.99,13.92,27.38,21.92,33.81,26.29c-9.26,30.73-72.66-0.08-105.2-2.1
			C440.14,479.16,458.04,469.28,497.46,474.2z"/>
		<path class="st0" d="M692.83,549.92c12.11,1.13,23.51,7.53,28.18,13.67c-4.54,2.8-22.43,14.92-24.42,16.83
			c-31.74-10.98-44.71-5.42-75.14-1.05c1.68-2.08,1.75-3.01,1.88-3.16C636.27,561.53,660.98,546.96,692.83,549.92z"/>
		<path class="st3" d="M413.86,303.83c50.33-5.01,44.22,52.43-5.64,32.6C388.88,328.74,388.58,306.35,413.86,303.83z"/>
		<path class="st3" d="M429.83,260.71c1.35-0.28,19.4-9.49,20.66-10.52c45.79-9.81,44.58,36.7,4.7,28.4
			C453.13,278.16,420.99,263.53,429.83,260.71z"/>
		<path class="st2" d="M692.83,549.92c-31.85-2.96-56.56,11.61-69.51,26.29c-2.2-11.15,8.77-28.15,29.12-31.55
			C660.76,543.27,693.32,543.38,692.83,549.92z"/>
		<path class="st0" d="M1414.2,395.33c36.84,31.1-35.47,55.24-77.96,66.26c-4.06,0.31-3.81-3.27-4.7-4.21
			c-16.22-17.04-32.6-54.41,0-67.31C1354.77,380.88,1397.51,381.24,1414.2,395.33z"/>
		<path class="st0" d="M1138.05,533.09c-25.54-7.63-3.16-7.23-20.66-35.76c5.23-9.88-20.4-10.15,6.57-22.09
			c43.08-19.07,111.46-1.45,96.75,29.97C1211.96,523.88,1165.95,528.97,1138.05,533.09z"/>
		<path class="st0" d="M1374.75,337.48c11.27,9.32-47.7,25.87-60.11,28.4c-20.01,4.07-31.02,5.36-35.69-8.94
			c-2.91-8.89,4.57-21.2,7.51-29.97c3.31,0.41,5.33-3.36,15.03-7.36C1352.84,311.75,1351.66,325.21,1374.75,337.48z"/>
		<path class="st0" d="M1262.03,557.28c11.91,2.99,27.07,17.75,24.42,24.19c-18.04-9.07-37.49-17.13-58.24-24.19
			C1239.64,555.27,1251.01,554.52,1262.03,557.28z"/>
		<path class="st10" d="M1312.76,635.11c-53.39,24.75-86.81,44.93-65.75,87.29c-7.61,1.56-23.79-10.85-40.39-14.72
			c-7.09-1.65-22.93,4.91-10.33-15.78c-5.33,15.92,5.07,16.92,13.15,13.15c1.73-0.81,3.99-13.07,13.15-24.19
			c4.93-5.98,31.6-21.35,13.15-17.35c5.08-2.91,10.94-5.03,15.03-8.41c14.29-3.99,24.31-19.77,31.94-28.4
			C1287.57,636.03,1299.29,633.13,1312.76,635.11z"/>
		<path class="st11" d="M1322.15,607.76c0.66,8.24-1.17,16.02,0,24.19c-3.75,1.75-8.03,2.52-9.39,3.16
			c-13.47-1.97-25.19,0.92-30.06-8.41C1296.18,611.44,1289.57,602.61,1322.15,607.76z"/>
		<path class="st0" d="M1374.75,337.48c-23.08-12.28-21.91-25.74-73.26-17.88c2.12-0.87,15.66-13.69,46.02-9.47
			c24.28,3.38,36.09,29.34,31.94,30.5C1378.52,338.27,1376.14,338.23,1374.75,337.48z"/>
		<path class="st0" d="M1523.15,545.42c-18.94-10.23-60.3-10.92-81.72-3.16c-41.51,15.06-8.86,55.36,2.82,75.72
			c-0.94,0-0.94,0-1.88,0c-4.17-8.24-12.32-16.49-16.91-24.71c-7.31-13.11-2.66-29.2-18.79-13.15
			c-9.49,3.77-15.27,11.56-22.54,16.83c-1.97-0.07-3.99,0.39-5.64-0.53c-3.45-1.93-40.64-46.73-41.33-49.43
			c-4.29-16.81,17.35-29.8,41.33-38.39c27.41,14.76,88.8,2.77,108.96-12.62c0.25,0.24,6.29,2.33,7.51,3.68
			c1.67,1.85,12.53,22.29,16.91,28.4C1515,532.42,1527.38,540.23,1523.15,545.42z"/>
		<path class="st0" d="M1523.15,545.71c17.43,9.42,15.26,27.31,5.64,38.39c-13.43,15.46-58.94,26.04-84.54,34.18
			c-11.68-20.36-44.33-60.66-2.82-75.72C1462.86,534.79,1504.22,535.48,1523.15,545.71z"/>
		<path class="st3" d="M1484.64,381.65c48.55-4.25,46.66,24.57,55.42,42.59c-33.34,11.83-33.34,11.83-66.69,23.66
			C1465.2,431.86,1437.15,385.81,1484.64,381.65z"/>
		<path class="st0" d="M1487.46,496.29c-20.15,15.39-81.55,27.38-108.96,12.62c6.7-2.4,7.58,1.12,11.27-1.58
			c3.43-29.62,58.98-45.38,93.93-17.88C1486.35,491.54,1487.14,495.98,1487.46,496.29z"/>
		<path class="st3" d="M1495.91,303.83c21.37-2.1,36.54,9.57,31,21.56c-6.96,15.06-65.11,28-54.48-6.31
			C1473.92,314.27,1486.58,304.75,1495.91,303.83z"/>
		<path class="st3" d="M1494.98,262.81c-55.5,42.59-82.06-11.16-41.33-14.72C1472.01,246.48,1484.06,256.14,1494.98,262.81z"/>
		<path class="st3" d="M510.61,622.49c-9.92,3.93,4.57,5.45-10.33,5.26c-1.78-0.02-25.22-10.01-29.12-11.57
			c0.1-0.69-0.22-1.44,0-2.1c0.72-2.21,22.82-12.54,22.54-26.29C510.37,598.37,511.49,608.99,510.61,622.49z"/>
		<path class="st0" d="M493.7,575.16c-67.07-2.48-19.56,1.28,0,12.62c0.28,13.75-21.82,24.08-22.54,26.29
			c-3.48,1.44-4.97,0.92-8.45,0c-4.64-1.23-71.23-27.52-74.2-29.45c-24.76-16.08-9.13-41.72,26.3-48.38
			C461.96,527.38,507.32,547.05,493.7,575.16z"/>
		<path class="st12" d="M1196.28,691.9c1.75-5.24,9.27-13.94,15.03-17.88c4.36-2.98,21.91-9.08,24.42-10.52
			c18.45-3.99-8.22,11.37-13.15,17.35c-9.16,11.12-11.42,23.38-13.15,24.19C1201.36,708.82,1190.95,707.81,1196.28,691.9z"/>
	</g>
	<g>
		<g id="Background_00000044868055888645340470000016212352577607039888_" class="st13">
			<path class="st14" d="M997.42,290.16c-0.1,0.58-0.1,0.58-0.19,1.16c3.57-2.8,11.65-9.75,14.17-12.81
				c1.87,1.62,2.48-0.89,3.69-0.39c1.76,0.73-1.24,3.29,2.52,1.16c-5.61,7.11-13.08,18.69-8.35,6.99
				c-4.09,1.47-10.94,5.82-12.81,5.05c-3.44,3.26-7.63,10.66-11.06,10.87c0.79-2.6-0.29-6.46-1.94-8.54
				c-3.68-4.64-21.19-11-26.01-3.3c-3.09,4.94,0.39,7.06-1.94,15.72c-1.77-0.54-1.68,2.54-3.88,3.3c0.78,7.1-3.41-2.04-6.4,0.58
				c-0.78-1.55-0.78-1.55-1.55-3.11c-2.16,1.15-5.88-4.53-8.35-3.11c-7.06-4.66-24.07-10.86-32.22-9.32
				c1.39-1.27,0.86-8.72,0.39-12.42c-1.22-2.08-12.15-2.84-14.94-0.78c-2.74,2.03-1.71,6.33-1.36,9.32
				c-0.84,6.9-6.74,2.74-11.06,2.33c-15.33,4.66-15.33,4.66-30.66,9.32c-2.91,0.53-7.98,0.8-10.67,0
				c-0.82-2.81-2.79-12.04-3.88-13.59c-4.83-6.81-37.53,3.45-25.62,14.75c-9.85,6.87-20.2,13.82-31.83,17.08
				c-0.24-0.41-0.4-5.82-6.79-4.66c-2.54,0.46-18.33,19.73-16.11,26.01c-4.68-3.02-5.49,6.59-6.6,13c-0.39,2.24,0.41,2.95,0.39,3.11
				c-0.23,1.37-2.69,5.11-1.16,5.43c-11.55,3.4-11.55,3.4-23.1,6.79c-0.29,0.29-0.29,0.29-0.58,0.58c0.83,2.23,1.86,3.13,1.94,3.3
				c0.52,1.06,0.4,2.48,1.94,2.52c-0.89,1.7,2.44,6.66,3.88,10.48c0.71,1.87,5.05,14.38,4.46,14.94c-4.66,0.97-4.66,0.97-9.32,1.94
				c-0.99,0.76,10.85,16.55,11.45,19.02c-7.78,0.83-9.94,10.3-8.54,16.69c-3.31,2.41,2.14,9.73,2.33,10.29
				c0.25,0.75-0.53,1.12-0.39,1.55c0.26,0.79,1.45,1.64,1.94,3.11c1.82,5.5,2.05,14.37,6.6,17.08c-0.45,4.15,2.78,6.03,1.94,10.87
				c5.4,1.48,3.35,6.72,4.66,11.64c0.15,0.55,1.94,2.29,1.94,5.43c3.86,2.82,4.95,7.73,5.82,12.42c5.54,5.13,3.02,5.51,1.55,8.35
				c-0.04,0.08-1.1,0.71-1.16,1.36c-0.21,1.99,8.27,20.09,11.64,22.32c1.97,1.3,4.12,1.82,6.6,0.78c1.58,2.06,3.44-1.4,5.24-1.16
				c4.76,1.92,4.73,4.22,6.99,6.21c1.29,1.14,4.61,2.17,4.85,2.52c0.32,0.47-0.31,3.59,2.33,4.27c-2.09,7.02,1.42,2.2,1.75,2.13
				c2.28-0.44-0.07,6.1,5.05,8.15c0.42,0.17,6.59,0.85,8.73,1.94c1.88,4.24,13.31,9.58,17.86,10.09c6.86,0.77,6.79-1.43,8.15-4.66
				c16.78,4.02,34.12-0.09,50.65,3.88c6.13-2.9,1.3,2.61,4.85,4.66c3.33,12.67,31.57,7.87,22.13-5.05c3.24,1.84,2.21-3.7,5.63,0.39
				c9.97-0.83,20.05-1.44,29.89-2.33c1.16-0.1,1.9,1.11,6.99-0.39c2.45-6.14,3.07-1.45,4.27-1.16c0.29,0.07,3.08-1,3.88-0.78
				c0.13,0.04-0.5,0.74,1.36,2.33c3.87,3.32,4.51,3.61,10.29,2.33c7.06-1.57,11.73-5.54,16.5-10.48c3.29-3.42,1.37,0.68,5.24,0
				c1.24-0.22,5.46-4.78,7.38-5.43c2.87-2.12,2.55-7.8,3.88-8.93c5.58-0.91,5.75-3.32,7.76-4.27c2.04-0.97,8.43-2.44,11.45-3.88
				c8.84,3.93,19.34-19.45,15.53-24.07c2.16-4.26-1.9-3.57-1.55-4.85c0.27-1.02,2.41-0.27,3.11-0.78c0.29-0.21,2.68-5.54,3.49-6.21
				c-4.31-3.54,5.51-9.82,6.21-11.64c1.52-3.96-2.95-6.51,6.21-11.26c0.15-12.68,0.94-7.03,6.6-13.59
				c0.45-9.26,3.41-9.59,3.88-10.87c0.23-0.63-0.09-5.88,3.49-12.81c5.64-3.44,1.48-3.69,5.43-9.32c0.76-7.03,3.25-13.56,2.33-20.96
				c0.39,0,0.39,0,0.78,0c-0.21,3.31,1.35,1.2-0.39-2.33c1.76,0.61,1.25-4.65,0.97-4.85c-0.97-0.7-19.11,8.67-21.93,9.32
				c0.34-8.77,0.25-15.61-5.05-22.9c1.21-2.89,3.99-1.06,4.46-1.16c4.87-1.02,3.75-3.96,5.24-5.63c1.84-2.05,7.84-0.88,2.13-8.73
				c-3.98-0.68-3.98-0.68-7.96-1.36c7.76-3.49,7.76-3.49,15.53-6.99c-13.2-0.19-13.2-0.19-26.39-0.39
				c5.82-5.24,5.82-5.24,11.64-10.48c-0.52-1.28-10.61,3.21-6.99,0.78c0.2-1.17-6.2-19.33-8.54-21.15
				c1.17-6.15-8.02-22.96-12.03-25.62c-1.78-1.18-8.46-2.61-10.29-1.55c-0.99,0.57-2.42,6.22-14.17,17.86
				c0.23-0.92-1.82-1.14-3.11-1.55c-3.62-10.14,7.03-17.01,15.14-26.78c0.18,5.67,2.68,0.51,5.63,0.78c1.79,1.89,8.2,1.73,9.51,2.91
				c0.62,0.56,1.42,4.09,1.55,4.27c0.73,0.99,5.32,1.52,6.6,10.48c4.5,3.98,8.17,8.96,13.59,12.81c-0.26,1.61,1.31,2.41,3.49,5.43
				c0.12,0.16,0.09,2.25,0.39,2.72c0.33,0.51,6.37,6.57,8.15,8.93c0.22,0.28,2.07,4.21,3.49,6.21c5.76,3.01,2.46,5.13,7.38,7.38
				c1.39,7.12,5.58,8.04,5.82,8.54c0.21,0.45-0.21,2.26,0,2.72c0.22,0.46,2.49-0.98,3.11,0.39c0.49,1.09-2.88,3.46,0.58,7.18
				c2.36-2.17,5.44-0.59,6.4-1.36c0.48-0.38,0.75-11.42,2.72-11.06c0.05,86.04-0.03,172.08,0,258.13c-20.57,0.03-41.14-0.03-61.72,0
				c-2.43-0.78-2.43-0.78-4.85-1.55c-80.62-1.08-161.2-1.84-241.82-0.78c-6.8,0.9-28.89,0.46-32.61,1.16
				c-0.13,0.02-1.37,0.74-1.36,1.16c-18.37-0.04-36.75,0.03-55.12,0c0.04-86.82-0.05-173.64,0-260.45c3.89-1.6,2.67,2.93,4.85,3.11
				c2.24,0.18,2.76-3.94,3.69-2.52c0.18,0.27-0.27,1.41,0.19,1.75c1.55,1.12,3.67-4.79,5.43-5.05c0.16-0.02,2.19,1.5,2.91,0.58
				c0.82-1.05-3.78-1.03,5.43-6.21c1.51-5.04,5.4-9.43,8.15-13.97c0.43-0.72,1.53-4.24,2.72-6.21c0.06-0.11,1.36-0.59,1.94-1.55
				c0.17-0.29-0.01-3.18,3.49-5.43c0.19-1.55,0.19-1.55,0.39-3.11c3.2-2.36,2.54-4.79,3.11-5.43c4.31-1.79,7.2-9.55,11.45-9.9
				c5.24-7.01,12.87-9.19,19.8-12.81c1.39-0.73,1.85,0.04,1.94,0c2.51-1.3,2.19-2.44,2.72-2.72c0.85-0.45,3.71-0.21,4.66-2.72
				c7.02-2.31,12.49-8.39,19.02-12.03c10.67-3.25,11.65,2.11,12.42-3.11c0.49,0.1,0.49,0.1,0.97,0.19c0.68,5.33,4.46-0.25,7.18-0.19
				c1.07-4.96,10.66-4.14,13.59-6.6c10.37,0.32,20.64-1.65,31.05-1.55c8.27-4.5,18.04-3.29,27.17-3.11c0.14,0,0.47-1.14,2.72-0.78
				c7.49,1.49,15.24,1.72,22.9,1.94c0.58,0.78,0.58,0.78,1.16,1.55c2.51-1.25,4.7,0.45,6.99-0.78c3.56,1.88,7.48,3.18,11.26,4.66
				c1.94-0.39,1.94-0.39,3.88-0.78c2.63,1.62,9.81,1.43,13.59,1.55c1.43,2.79,4.13,1.62,5.05,1.94c0.49,0.17,2.18,1.92,2.33,1.94
				c1.32,0.21,1.68-1.61,2.72-1.16c0.91,0.39,0.37,1.69,0.78,1.94c0.46,0.28,8.5,0.41,9.7,3.11c4.44-2.17,7.72,5.53,15.91,2.33
				C991.75,291.57,995.54,291.11,997.42,290.16z"/>
			<path class="st14" d="M1009.06,234.26c0.05,5.01,5.52,9.25,9.51,12.42c1.91,1.52,18.67,12.85,21.74,14.75
				c1.46,0.9,5.03,1.85,5.82,2.33c0.29,0.17,0.49,1.38,0.78,1.55c1.82,1.08,4.08,1.43,4.27,1.55c0.13,0.08,1.42,2.02,1.94,2.33
				c0.29,0.17,1.66-0.17,1.94,0c0.85,0.53,0.99,1.58,1.55,1.94c0.69,0.44,3.6-0.59,1.94,1.94c9.44,2.42,5.48,4.35,5.82,5.05
				c1.73,3.5,1.26-0.83,1.36-0.97c0.08-0.11,2.4-0.63,2.52-0.58c0.21,0.09-0.77,3.93,0.78,4.27c0.78,0.17,1.39-1.55,2.33-1.55
				c0.31,0,4.52,2.26,2.72,4.66c5-1.37,3.72,1.24,4.27,1.55c0.31,0.18,1.6-0.18,1.94,0c0.12,0.06,1.82,1.88,1.94,1.94
				c0.73,0.35,3.35,0.29,3.49,0.39c1.6,1.11,0.66,3.43,1.55,3.88c5.71,2.9,3.47-8.86,6.79-10.48c0.03,11.64-0.01,23.29,0,34.93
				c-0.51-0.05-1.14,1.6-1.16,1.75c-0.66,4.71-1.07,25.53-1.55,26.78c-0.09,0.24-0.63,0.69-0.97,0.58
				c-4.47-11.75-47.06-55.05-54.73-59c-3.84-1.98-1.29,1.02-2.13,2.52c-1.55,2.75-2.45-1.91-3.49-2.33c1.9-2.59-0.9-1.84-1.16-0.78
				c-0.22,0.9,3.11,3.62-1.75,2.52c-0.06-2.88-6.24-6.46-4.46-3.49c-8.13,6.43-13.81,14.52-19.41,23.1
				c3.39-7.73,12.94-21.03,15.53-26.78c2.41-5.37,0.28-2.56-1.16-1.75c-3.77,2.12-0.76-0.43-2.52-1.16c-1.21-0.5-1.82,2-3.69,0.39
				c0.48-0.59,2.59-3.05,1.75-3.49c-1.83,1.79-4.17,3.32-6.02,5.05c-4.31-1.09-3.72,3.38-7.57,1.94c-3.48-1.3-0.52-5.96-6.99-3.88
				c-0.11-6.61-8.46-3.69-13.2-4.27c-3.04-0.82-1.82-3.23-4.27-4.66c-5.48,1.18-10.66-1.75-15.91-0.78
				c-0.5-5.7-8.96-3.87-15.14-4.27c-0.16-0.01-0.62-0.77-0.78-0.78c-3.09-0.19-7.81,2.86-11.26-1.94
				c-3.99,0.12-7.22-3.17-11.26-1.94c-1.57-2.44-4.38-0.75-4.66-0.78c-5.32-0.55-9.71-1.46-15.14-0.78
				c-9.77-4.33-9.98,1.7-13.2-0.78c-0.67,2.39-2.74,0.26-8.15,0.39c-0.15,0-0.62,0.77-0.78,0.78c-1.13,0.03-5.02-1.34-10.09,0
				c-1.18,6.11-8.69-1.06-10.87,4.66c-5.78-1.21-8.1,0.71-8.54,0.78c-3.04,0.44-5.77-0.01-8.54,1.55c-7.32-3.48-7.75,1.26-8.15,1.55
				c-0.28,0.2-4.43-1.25-5.82,2.33c-1.62,0.32-3.68-3.61-5.43,0.39c-2.4-0.11-7.42,1.43-9.32,3.49c-4.83-0.74-5.32,2.76-5.82,3.11
				c-3.27,0.88-6.39-1.5-6.99,1.94c-2.9-3.84-15.03,3.24-19.8,5.82c-4.58,2.48-11.14,7.12-15.91,10.09
				c-0.47,0.29-2.97,0.69-3.11,0.78c-2.33,1.47-6.19,6.02-6.6,6.21c-0.51,0.23-2.74-0.23-3.11,0c-0.3,0.18,0.9,6.15-3.49,3.88
				c-0.47-0.24-0.51-1.69-0.58-1.75c-4.65-3.68-0.6,6.31-5.63,6.02c-0.97-0.06-2.4-2.33-2.13-3.3c0.26-0.93,7.72-8.19,9.7-7.76
				c0.97-1.1-1.4-2.03,0.39-8.15c1.01-0.79,3.81-2.16,4.27-3.11c3.28-6.82-18.6,12.13-19.99,13.39
				c-9.33,8.49-23.5,26.15-25.23,26.78c-5.68,2.07-8.42-3.8-11.45-7.38c0.02-13.2-0.03-26.39,0-39.59c1.63-0.34,0.6,4.53,4.46,4.27
				c2.42-0.16,4.49-4.21,8.15-3.11c1.52-3.84,4.83-1.85,6.6-5.05c2.52-0.58,2.52-0.58,5.05-1.16c1.86-4.25,1.74-0.85,1.94-0.78
				c0.28,0.11,4.8-1.88,5.82-1.55c16.4-10.66,32.87-20.99,50.07-30.28c1.34-0.72,4.35,0.19,5.05-3.49c4.96,0.5,3.67-1.12,5.24-4.66
				C862.34,234.19,935.7,234.18,1009.06,234.26z"/>
			<path class="st14" d="M1007.12,280.07c-2.35,2.2-7.46,8.96-9.7,10.09c-1.88,0.95-5.67,1.41-7.57,0
				c-8.19,3.2-11.48-4.5-15.91-2.33c-1.2-2.7-9.25-2.83-9.7-3.11c-0.41-0.25,0.13-1.55-0.78-1.94c-1.03-0.44-1.4,1.37-2.72,1.16
				c-0.15-0.02-1.84-1.77-2.33-1.94c-0.92-0.32-3.61,0.85-5.05-1.94c-3.78-0.12-10.95,0.07-13.59-1.55
				c-1.94,0.39-1.94,0.39-3.88,0.78c-3.77-1.47-7.7-2.78-11.26-4.66c-2.29,1.23-4.48-0.48-6.99,0.78c-0.58-0.78-0.58-0.78-1.16-1.55
				c-7.66-0.22-15.41-0.45-22.9-1.94c-2.24-0.37-2.58,0.78-2.72,0.78c-9.13-0.18-18.9-1.39-27.17,3.11
				c-10.41-0.1-20.68,1.88-31.05,1.55c-2.93,2.46-12.52,1.64-13.59,6.6c-2.72-0.05-6.5,5.53-7.18,0.19c-0.49-0.1-0.49-0.1-0.97-0.19
				c-0.77,5.22-1.75-0.14-12.42,3.11c-6.53,3.64-12,9.72-19.02,12.03c-0.94,2.5-3.81,2.27-4.66,2.72c-0.53,0.28-0.2,1.42-2.72,2.72
				c-0.09,0.04-0.55-0.73-1.94,0c-6.93,3.62-14.56,5.8-19.8,12.81c-4.25,0.34-7.14,8.11-11.45,9.9c-0.56,0.65,0.09,3.08-3.11,5.43
				c-0.19,1.55-0.19,1.55-0.39,3.11c-3.5,2.25-3.32,5.15-3.49,5.43c-0.58,0.96-1.88,1.45-1.94,1.55c-1.19,1.98-2.28,5.5-2.72,6.21
				c-2.75,4.55-6.65,8.93-8.15,13.97c-9.21,5.18-4.61,5.16-5.43,6.21c-0.72,0.91-2.75-0.61-2.91-0.58
				c-1.76,0.25-3.88,6.16-5.43,5.05c-0.46-0.33-0.02-1.48-0.19-1.75c-0.93-1.42-1.44,2.7-3.69,2.52c-2.18-0.17-0.96-4.7-4.85-3.11
				c0.01-17.21-0.02-34.42,0-51.63c3.03,3.57,5.77,9.45,11.45,7.38c1.73-0.63,15.9-18.29,25.23-26.78
				c1.39-1.26,23.27-20.21,19.99-13.39c-0.46,0.95-3.26,2.32-4.27,3.11c-1.79,6.12,0.58,7.05-0.39,8.15
				c-1.98-0.42-9.44,6.83-9.7,7.76c-0.27,0.97,1.16,3.24,2.13,3.3c5.03,0.29,0.97-9.69,5.63-6.02c0.07,0.06,0.11,1.51,0.58,1.75
				c4.4,2.26,3.19-3.7,3.49-3.88c0.37-0.23,2.6,0.23,3.11,0c0.41-0.19,4.27-4.74,6.6-6.21c0.14-0.09,2.64-0.48,3.11-0.78
				c4.77-2.97,11.34-7.61,15.91-10.09c4.76-2.58,16.9-9.66,19.8-5.82c0.6-3.44,3.72-1.06,6.99-1.94c0.51-0.34,0.99-3.84,5.82-3.11
				c1.9-2.06,6.92-3.6,9.32-3.49c1.75-3.99,3.82-0.06,5.43-0.39c1.39-3.58,5.54-2.13,5.82-2.33c0.4-0.29,0.83-5.04,8.15-1.55
				c2.77-1.56,5.49-1.11,8.54-1.55c0.44-0.06,2.76-1.99,8.54-0.78c2.18-5.71,9.68,1.45,10.87-4.66c5.07-1.34,8.96,0.03,10.09,0
				c0.15,0,0.62-0.77,0.78-0.78c5.41-0.13,7.48,2,8.15-0.39c3.22,2.48,3.43-3.55,13.2,0.78c5.43-0.68,9.82,0.23,15.14,0.78
				c0.28,0.03,3.09-1.67,4.66,0.78c4.03-1.23,7.27,2.06,11.26,1.94c3.45,4.8,8.16,1.75,11.26,1.94c0.16,0.01,0.62,0.77,0.78,0.78
				c6.18,0.4,14.64-1.43,15.14,4.27c5.25-0.97,10.44,1.95,15.91,0.78c2.45,1.43,1.23,3.83,4.27,4.66c4.74,0.58,13.09-2.34,13.2,4.27
				c6.46-2.08,3.51,2.58,6.99,3.88C1003.41,283.45,1002.82,278.98,1007.12,280.07z"/>
			<path class="st14" d="M1094.07,316.17c0.02,19.15-0.01,38.3,0,57.45c-1.97-0.36-2.24,10.69-2.72,11.06
				c-0.97,0.76-4.04-0.81-6.4,1.36c-3.46-3.72-0.09-6.09-0.58-7.18c-0.62-1.36-2.89,0.07-3.11-0.39c-0.21-0.45,0.21-2.27,0-2.72
				c-0.24-0.5-4.44-1.42-5.82-8.54c-4.92-2.24-1.62-4.36-7.38-7.38c-1.43-2-3.28-5.93-3.49-6.21c-1.79-2.36-7.82-8.42-8.15-8.93
				c-0.3-0.47-0.27-2.55-0.39-2.72c-2.18-3.02-3.75-3.82-3.49-5.43c-5.42-3.85-9.09-8.83-13.59-12.81
				c-1.28-8.96-5.87-9.49-6.6-10.48c-0.13-0.18-0.93-3.71-1.55-4.27c-1.31-1.18-7.72-1.02-9.51-2.91c-2.94-0.27-5.45,4.9-5.63-0.78
				c2.97-3.58,5.34-6.05,3.69-5.82c-1.06,0.14-12.87,13.79-14.56,15.72c-0.15,0.18-2.27,4.65-3.11,3.11
				c4.04-6.37,6.98-13.58,11.26-19.8c1.37-2,10.97-12.35,10.87-13.2c-0.05-0.37-0.74,0.13-1.16-0.58c-1.77-2.96,4.4,0.61,4.46,3.49
				c4.86,1.1,1.52-1.62,1.75-2.52c0.26-1.06,3.06-1.82,1.16,0.78c1.04,0.42,1.94,5.08,3.49,2.33c0.85-1.5-1.71-4.5,2.13-2.52
				c7.67,3.95,50.26,47.25,54.73,59c0.35,0.11,0.88-0.34,0.97-0.58c0.49-1.25,0.89-22.07,1.55-26.78
				C1092.93,317.77,1093.56,316.12,1094.07,316.17z"/>
			<path class="st15" d="M1009.06,234.26c28.34,0.03,56.67-0.02,85.01,0c0.03,15.66-0.03,31.31,0,46.97
				c-3.33,1.62-1.08,13.38-6.79,10.48c-0.89-0.45,0.05-2.77-1.55-3.88c-0.14-0.1-2.77-0.03-3.49-0.39
				c-0.12-0.06-1.82-1.88-1.94-1.94c-0.34-0.18-1.63,0.18-1.94,0c-0.55-0.31,0.73-2.92-4.27-1.55c1.8-2.4-2.41-4.66-2.72-4.66
				c-0.94,0-1.55,1.72-2.33,1.55c-1.55-0.34-0.56-4.18-0.78-4.27c-0.12-0.05-2.45,0.48-2.52,0.58c-0.1,0.14,0.37,4.47-1.36,0.97
				c-0.34-0.69,3.61-2.63-5.82-5.05c1.66-2.53-1.25-1.5-1.94-1.94c-0.56-0.36-0.7-1.41-1.55-1.94c-0.28-0.17-1.65,0.17-1.94,0
				c-0.52-0.31-1.81-2.25-1.94-2.33c-0.19-0.12-2.45-0.47-4.27-1.55c-0.28-0.17-0.49-1.38-0.78-1.55c-0.79-0.47-4.37-1.43-5.82-2.33
				c-3.06-1.9-19.83-13.23-21.74-14.75C1014.59,243.51,1009.12,239.28,1009.06,234.26z"/>
			<path class="st15" d="M788.98,234.26c-1.57,3.53-0.28,5.16-5.24,4.66c-0.7,3.68-3.71,2.77-5.05,3.49
				c-17.2,9.28-33.67,19.62-50.07,30.28c-1.03-0.32-5.54,1.66-5.82,1.55c-0.2-0.08-0.08-3.48-1.94,0.78
				c-2.52,0.58-2.52,0.58-5.05,1.16c-1.77,3.2-5.08,1.2-6.6,5.05c-3.66-1.11-5.74,2.94-8.15,3.11c-3.86,0.26-2.83-4.61-4.46-4.27
				c0.04-15.27-0.03-30.54,0-45.8C727.39,234.24,758.18,234.29,788.98,234.26z"/>
			<path class="st16" d="M1032.35,631.74c-93.54,0.16-187.1,0.19-280.64,0c-0.02-0.42,1.23-1.14,1.36-1.16
				c3.71-0.7,25.8-0.26,32.61-1.16c80.63-1.06,161.2-0.3,241.82,0.78C1029.93,630.96,1029.93,630.96,1032.35,631.74z"/>
			<path class="st16" d="M1037.4,521.11c-2.1-2.55-6.26-1.39-11.84-3.11c-6.59-2.03-21.07-12.27-27.37-16.69
				c20.17-4.59,28.71-31.17,27.56-49.49c-0.11-1.81-1.73-6.58-0.39-6.4c6.95,0.34,14.24-0.45,21.15,0
				c5.28,0.35,9.05,3.82,14.36,0.39c7.15-4.61,6.24-22.46-4.85-23.29c-0.69-1.85,0-1.48,0-1.55c2.82-0.64,20.96-10.01,21.93-9.32
				c0.28,0.2,0.79,5.46-0.97,4.85c1.74,3.52,0.18,5.64,0.39,2.33c-0.39,0-0.39,0-0.78,0c0.92,7.4-1.57,13.93-2.33,20.96
				c-3.95,5.62,0.2,5.87-5.43,9.32c-3.58,6.93-3.26,12.18-3.49,12.81c-0.47,1.27-3.43,1.61-3.88,10.87
				c-5.66,6.55-6.45,0.9-6.6,13.59c-9.16,4.75-4.69,7.3-6.21,11.26c-0.7,1.82-10.53,8.1-6.21,11.64c-0.81,0.67-3.21,6-3.49,6.21
				c-0.69,0.51-2.83-0.25-3.11,0.78C1035.5,517.55,1039.56,516.85,1037.4,521.11z"/>
			<path class="st16" d="M768.02,445.42c-4.98,20.26-0.3,55.44,27.56,52.01c-11.8,8.62-23.71,16.25-37.65,20.96
				c-2.03,0.69-4.26,0.96-6.21,1.94c1.46-2.83,3.99-3.21-1.55-8.35c-0.87-4.69-1.97-9.6-5.82-12.42c0-3.15-1.8-4.89-1.94-5.43
				c-1.31-4.93,0.75-10.16-4.66-11.64c0.84-4.84-2.39-6.72-1.94-10.87c-4.55-2.71-4.77-11.58-6.6-17.08
				c-0.49-1.47-1.68-2.32-1.94-3.11c-0.14-0.43,0.64-0.8,0.39-1.55c-0.19-0.55-5.64-7.88-2.33-10.29
				c2.91,13.31,17.57,6.02,19.21,5.82C749.74,444.8,761.49,445.89,768.02,445.42z"/>
			<path class="st17" d="M780.05,364.3c-8.35,13.2-17.27,37.92-11.26,52.98c4.12,10.32,13.75,3.66,3.88,13.78c-10,0-10,0-19.99,0
				c-6.25-2.52-11.48-8.93-18.83-8.15c-0.6-2.47-12.44-18.26-11.45-19.02c4.66-0.97,4.66-0.97,9.32-1.94
				c0.58-0.57-3.76-13.07-4.46-14.94c-1.44-3.82-4.77-8.78-3.88-10.48c-1.54-0.05-1.43-1.47-1.94-2.52c2.23-2.22,3.8,2.57,4.08,2.72
				c0.91,0.5,0.73-3.73,5.05,0.39c3.13-2.45,9.82,3.8,10.48-1.94c0.88,3,9.81,3.59,12.03,3.11c1.08-0.23,17.39-8.43,19.8-9.7
				c0.26-0.14,1.59,0.25,2.72-0.39C777.03,367.36,778.35,364.41,780.05,364.3z"/>
			<path class="st17" d="M1050.99,398.07c5.3,7.29,5.39,14.13,5.05,22.9c0,0.08-0.69-0.3,0,1.55c-7.65-0.58-16.68,8-19.21,8.54
				c-2.33,0.49-11.7-0.36-15.72,0c-2.33-3.4-2.33-3.4-4.66-6.79c13.93-11.94,4.91-40.11-2.72-53.76
				c6.34-4.82,13.68-8.39,20.77-12.03c-0.49,10.58-0.49,10.58-0.97,21.15c4.46,3.11,4.46,3.11,8.93,6.21
				c-0.3,7.07,4.57,25.32,3.69,6.79C1047.48,394.2,1049.88,396.54,1050.99,398.07z"/>
			<path class="st16" d="M1021.87,545.18c-3.02,1.44-9.41,2.91-11.45,3.88c-2.01,0.95-2.18,3.36-7.76,4.27
				c-1.33,1.12-1.02,6.81-3.88,8.93c-1.91,0.65-6.14,5.22-7.38,5.43c-3.87,0.68-1.95-3.42-5.24,0c2.19-9.72-17.87-2.43-24.07-33.77
				c8.78-4.32,20.52-9.39,27.17-16.3C1002.13,527.18,1010.37,533.49,1021.87,545.18z"/>
			<path class="st16" d="M1050.99,398.07c-1.11-1.53-3.5-3.87-4.85-5.43c0.88,18.53-3.99,0.28-3.69-6.79
				c-4.46-3.11-4.46-3.11-8.93-6.21c0.49-10.58,0.49-10.58,0.97-21.15c-7.09,3.64-14.43,7.21-20.77,12.03
				c-2.08-3.72-4.94-7.28-7.76-10.48c12.78-8.64,19.08-12.13,34.16-17.08c2.34,1.82,8.74,19.98,8.54,21.15
				c-3.62,2.43,6.47-2.06,6.99-0.78c-5.82,5.24-5.82,5.24-11.64,10.48c13.2,0.19,13.2,0.19,26.39,0.39
				c-7.76,3.49-7.76,3.49-15.53,6.99c3.98,0.68,3.98,0.68,7.96,1.36c5.7,7.85-0.3,6.68-2.13,8.73c-1.49,1.67-0.37,4.6-5.24,5.63
				C1054.97,397,1052.19,395.18,1050.99,398.07z"/>
			<path class="st16" d="M890.68,554.5c-0.13,4.14-0.18,8.28-0.39,12.42c-2.73,4.6-6.54,10.23-5.05,15.91
				c-3.55-2.04,1.28-7.56-4.85-4.66c-16.53-3.97-33.87,0.13-50.65-3.88c3.02-7.14,7-23.92,12.81-34.16
				C852.94,552.84,876.52,570.59,890.68,554.5z"/>
			<path class="st16" d="M948.51,540.52c5.38,11.2,7.29,23.52,10.87,35.32c-1.86-1.59-1.23-2.29-1.36-2.33
				c-0.8-0.22-3.6,0.85-3.88,0.78c-1.2-0.29-1.82-4.97-4.27,1.16c-5.09,1.5-5.83,0.28-6.99,0.39c-9.84,0.89-19.92,1.5-29.89,2.33
				c-3.42-4.08-2.39,1.46-5.63-0.39c-3.1-4.23-3.26,0.83-4.66-7.76c-0.68-4.21-0.87-8.56-1.16-12.81
				c12.33,8.69,34.73-4.53,43.09-14.75C948.52,539.6,948.33,540.67,948.51,540.52z"/>
			<path class="st16" d="M750.55,341.78c0.86,2.44,2.49,2.1,4.27,3.11c10.18,5.77,16.44,8.77,27.17,15.53
				c-0.02,1.13-1.21,2.72-1.94,3.88c-1.7,0.11-3.02,3.07-4.46,3.88c-1.13,0.64-2.46,0.25-2.72,0.39c-2.41,1.27-18.72,9.47-19.8,9.7
				c-2.22,0.49-11.15-0.11-12.03-3.11c-0.66,5.74-7.35-0.51-10.48,1.94c-4.32-4.12-4.13,0.11-5.05-0.39
				c-0.27-0.15-1.85-4.94-4.08-2.72c-0.08-0.17-1.11-1.07-1.94-3.3c0.29-0.29,0.29-0.29,0.58-0.58c11.55-3.4,11.55-3.4,23.1-6.79
				c-1.53-0.33,0.94-4.06,1.16-5.43c0.03-0.15-0.78-0.87-0.39-3.11C745.06,348.38,745.87,338.77,750.55,341.78z"/>
			<path class="st16" d="M824.3,322.38c0.08,1.92-14.37,8.44-16.11,8.93c-6.57,1.83-16.5,1.79-23.48,3.11
				c-4.68-4.37-7.05-6.9-10.48-12.42c-0.3-0.49-0.49-1.05-0.78-1.55c11.63-3.26,21.98-10.21,31.83-17.08
				C811.07,308.84,815.54,302.83,824.3,322.38z"/>
			<path class="st16" d="M804.12,547.9c-0.16,1.44-0.9,2.34,0.19,3.11c8.66-2.75,16.08-8.36,23.1-13.97
				c-2.03,3.91-2.88,8.67-5.43,12.42c-0.93,1.36-5.74,6.21-7.18,7.38c-7.65,6.21-13.92,5.58-11.06,12.03
				c-2.14-1.09-8.32-1.77-8.73-1.94c-5.12-2.05-2.76-8.59-5.05-8.15c-0.33,0.06-3.84,4.89-1.75-2.13c-2.64-0.68-2.01-3.8-2.33-4.27
				c-0.24-0.35-3.56-1.39-4.85-2.52c-2.26-1.99-2.22-4.29-6.99-6.21c-1.8-0.24-3.66,3.23-5.24,1.16c1.06-0.45,6.65-8.46,16.3-16.3
				C790.11,536.05,797.3,541.96,804.12,547.9z"/>
			<path class="st18" d="M947.35,593.31c2.12,3.84-6.49,4.03-9.9,6.21c-4.02-0.4-7.8,0.48-12.23,0.78
				c-20.7,1.38-52.32-0.08-74.53-0.39c3.87-1.2-0.89-1.53-0.78-2.91c0.08-1.01,3.77-0.82,2.72-3.69
				C884.2,592.9,915.78,593,947.35,593.31z"/>
			<path class="st15" d="M925.22,600.3c4.43-0.29,8.21-1.18,12.23-0.78c3.41-2.18,12.02-2.37,9.9-6.21
				c31.92,0.32,63.85-0.1,95.68,2.72c0,0.39,0,0.39,0,0.78C1003.81,598.87,964.5,599.83,925.22,600.3z"/>
			<path class="st16" d="M887.57,294.82c-12.35-2.44-40.75,13.09-40.76,27.95c-1.5,0.99-4.82,2.55-5.05,2.72
				c-2.82-7.62-4.71-15.51-6.99-23.29c2.69,0.8,7.77,0.53,10.67,0c15.33-4.66,15.33-4.66,30.66-9.32
				c4.32,0.41,10.22,4.57,11.06-2.33C887.35,291.97,887.69,293.37,887.57,294.82z"/>
			<path class="st15" d="M852.64,593.31c1.05,2.87-2.64,2.68-2.72,3.69c-0.11,1.38,4.65,1.71,0.78,2.91
				c-34.29-0.47-68.64-0.92-102.86-2.91C782.79,596.09,817.67,593.48,852.64,593.31z"/>
			<path class="st16" d="M955.5,306.07c-1.21,4.49-5.91,14.26-7.38,20.18c-0.18-0.12-3.67-1.9-3.88-1.94
				c6.53-7.73-2.61-16.41-8.93-20.57c2.46-1.42,6.18,4.26,8.35,3.11c0.78,1.55,0.78,1.55,1.55,3.11c3-2.62,7.18,6.52,6.4-0.58
				C953.81,308.61,953.73,305.54,955.5,306.07z"/>
			<path class="st19" d="M977.62,508.3c3.64,3.32,7.69,6.38,11.64,9.32c-6.65,6.91-18.39,11.98-27.17,16.3
				c-0.31-1.54-0.7-3.08-0.78-4.66c6.03-6.39,10.44-14.14,15.91-20.96C977.43,508.3,977.43,508.3,977.62,508.3z"/>
		</g>
		<g>
			<g>
				<path class="st20" d="M1022.65,284.73c0.43,0.71,1.12,0.21,1.16,0.58c0.1,0.85-9.49,11.2-10.87,13.2
					c-4.28,6.21-7.22,13.43-11.26,19.8c0.84,1.54,2.95-2.93,3.11-3.11c1.69-1.93,13.49-15.58,14.56-15.72
					c1.65-0.22-0.72,2.24-3.69,5.82c-8.11,9.77-18.76,16.64-15.14,26.78c-12.37-3.99-24.17-6.36-37.26-6.21
					c4.51-10.99,11.68-15.85,21.54-21.74c0.92-0.52,0.4-1.34,0.58-1.94c3.44-0.2,7.63-7.61,11.06-10.87
					c1.87,0.77,8.72-3.58,12.81-5.05c-4.73,11.7,2.74,0.12,8.35-6.99c1.45-0.82,3.58-3.62,1.16,1.75
					c-2.59,5.75-12.14,19.05-15.53,26.78C1008.84,299.24,1014.52,291.16,1022.65,284.73z"/>
				<path class="st21" d="M1011.39,278.51c-2.52,3.06-10.6,10.01-14.17,12.81c0.1-0.58,0.1-0.58,0.19-1.16
					c2.24-1.14,7.35-7.89,9.7-10.09c1.85-1.73,4.19-3.26,6.02-5.05C1013.99,275.47,1011.88,277.93,1011.39,278.51z"/>
			</g>
			<g>
				<path class="st22" d="M1000.52,332.08c1.29,0.42,3.34,0.64,3.11,1.55c-7.93,7.85-17,14.27-25.23,21.74
					c-0.55-6.4,0-14.03-6.02-18.24c-7.92-5.54-9.79,0.9-11.45,3.11c-2.29-2.4-1.21-2.09-1.16-2.72c0.12-1.82,2.59-9.45,3.49-11.64
					C976.35,325.72,988.15,328.09,1000.52,332.08z"/>
				<path class="st22" d="M829.35,336.35c0,0.39,0,0.39,0,0.78c-9.92-5.87-18.46,8.33-18.24,17.47
					c-4.34-4.01-18.03-12.39-26.39-20.18c6.99-1.31,16.91-1.27,23.48-3.11c1.74-0.48,16.18-7.01,16.11-8.93
					C826.35,326.94,828.25,331.45,829.35,336.35z"/>
			</g>
			<g>
				
					<linearGradient id="SVGID_1_" gradientUnits="userSpaceOnUse" x1="270.7557" y1="11.0394" x2="332.8888" y2="132.0166" gradientTransform="matrix(0.3882 0 0 0.3882 892.2204 490.5099)">
					<stop  offset="0" style="stop-color:#2B1651"/>
					<stop  offset="1" style="stop-color:#682267"/>
				</linearGradient>
				<path class="st23" d="M987.33,493.55c3.72,2.45,7.23,5.2,10.87,7.76c6.29,4.43,20.78,14.66,27.37,16.69
					c5.58,1.72,9.74,0.56,11.84,3.11c3.81,4.62-6.69,28-15.53,24.07c-11.5-11.69-19.74-18-32.61-27.56c-3.95-2.94-8-5.99-11.64-9.32
					c3.52-3.8,5.32-8.53,7.76-13C986.49,493.27,987.27,493.67,987.33,493.55z"/>
				<path class="st24" d="M962.1,533.92c6.2,31.34,26.25,24.05,24.07,33.77c-4.77,4.94-9.43,8.91-16.5,10.48
					c-5.77,1.28-6.42,0.99-10.29-2.33c-3.58-11.8-5.49-24.12-10.87-35.32c4.33-3.59,8.94-7.15,12.81-11.26
					C961.4,530.85,961.79,532.38,962.1,533.92z"/>
				<g>
					<path class="st24" d="M1040.12,342.95c-15.08,4.95-21.38,8.44-34.16,17.08c-6.77,4.58-13.14,9.63-19.8,14.36
						c-1.34-3.41-3.7-6.94-3.88-10.87c12.12-6.07,39.19-35.02,41.73-36.1c1.78-0.76,2.95,0.84,3.3,0.19
						c-1.09-3.79-0.44-6.63,0.78-10.29C1032.1,319.99,1041.29,336.8,1040.12,342.95z"/>
					<path class="st25" d="M1028.08,317.33c-1.22,3.66-1.87,6.5-0.78,10.29c-0.35,0.65-1.52-0.95-3.3-0.19
						c-2.54,1.08-29.61,30.02-41.73,36.1c-2.72-3.3-2.72-3.3-5.43-6.6c0.52-0.48,1.01-1.06,1.55-1.55
						c8.23-7.47,17.3-13.89,25.23-21.74c11.75-11.63,13.18-17.28,14.17-17.86C1019.63,314.72,1026.31,316.15,1028.08,317.33z"/>
				</g>
				<g>
					<path class="st25" d="M983.45,293.65c-13.69,9.26-20.45,24.77-29.5,38.04c-0.69-0.68-5.49-5.22-5.82-5.43
						c1.47-5.93,6.16-15.69,7.38-20.18c2.33-8.66-1.15-10.78,1.94-15.72C962.26,282.65,979.76,289.02,983.45,293.65z"/>
					<path class="st24" d="M983.45,293.65c1.65,2.08,2.73,5.94,1.94,8.54c-0.18,0.6,0.34,1.42-0.58,1.94
						c-9.86,5.89-17.03,10.74-21.54,21.74c-0.9,2.19-3.37,9.82-3.49,11.64c-2.45-0.84-4.34-4.36-5.82-5.82
						C962.99,318.42,969.75,302.92,983.45,293.65z"/>
				</g>
				<g>
					<path class="st26" d="M903.1,294.43c-6.15,1.17-1.48,16.67-3.49,26.01c-2.38-0.2-7.14-0.11-9.7,0c-0.45-5.9,0.61-17.32,0-21.74
						c1.23-0.33,2.95,1.2,3.3,1.16c2.23-0.24,7.24-16.18,10.29-17.86C903.96,285.7,904.49,293.16,903.1,294.43z"/>
					<path class="st27" d="M903.48,282.01c-3.05,1.68-8.05,17.62-10.29,17.86c-0.35,0.04-2.07-1.5-3.3-1.16
						c-0.26-1.91-0.5-3.52-2.33-3.88c0.12-1.45-0.22-2.85-0.39-4.27c-0.36-2.99-1.38-7.29,1.36-9.32
						C891.33,279.16,902.26,279.92,903.48,282.01z"/>
				</g>
				
					<linearGradient id="SVGID_00000099650642416455116660000010575153159136257196_" gradientUnits="userSpaceOnUse" x1="335.5134" y1="-160.9025" x2="238.3129" y2="-148.4097" gradientTransform="matrix(0.3882 0 0 0.3882 892.2204 490.5099)">
					<stop  offset="0" style="stop-color:#8D181B"/>
					<stop  offset="1" style="stop-color:#57083A"/>
				</linearGradient>
				<path style="fill:url(#SVGID_00000099650642416455116660000010575153159136257196_);" d="M1005.96,360.03
					c2.83,3.2,5.68,6.76,7.76,10.48c7.62,13.65,16.64,41.82,2.72,53.76c2.33,3.4,2.33,3.4,4.66,6.79
					c0.58,2.21,3.04,13.92,4.27,14.36c-1.34-0.18,0.27,4.6,0.39,6.4c1.15,18.33-7.39,44.9-27.56,49.49
					c-3.64-2.56-7.15-5.31-10.87-7.76c0.38-0.74,2.46-7.43,2.72-7.96c0.64-1.33,2.42-3.5,3.11-5.05c2.44-5.47,4.03-11.43,6.99-16.69
					c0.62-5.29,3.21-10.28,3.88-15.53c1.3-10.13,0.34-21.41-2.33-31.25c-2.96-10.91-8.97-20.98-11.64-32.02
					c-2.11-2.36-2.69-7.66-3.88-10.67C992.82,369.66,999.19,364.61,1005.96,360.03z"/>
				<g>
					
						<linearGradient id="SVGID_00000134245213473727574300000007990316134742403259_" gradientUnits="userSpaceOnUse" x1="-384.851" y1="-175.4492" x2="-356.7641" y2="-114.6205" gradientTransform="matrix(0.3882 0 0 0.3882 892.2204 490.5099)">
						<stop  offset="0" style="stop-color:#981A2A"/>
						<stop  offset="1" style="stop-color:#741852"/>
					</linearGradient>
					<path style="fill:url(#SVGID_00000134245213473727574300000007990316134742403259_);" d="M772.68,431.06
						c-0.74,4.96-3.47,9.54-4.66,14.36c-6.53,0.47-18.27-0.63-23.48,0c-1.64,0.2-16.3,7.48-19.21-5.82
						c-1.4-6.39,0.76-15.86,8.54-16.69c7.35-0.78,12.57,5.63,18.83,8.15C762.68,431.06,762.68,431.06,772.68,431.06z"/>
					
						<linearGradient id="SVGID_00000029753341208060284370000007389986818935144361_" gradientUnits="userSpaceOnUse" x1="393.1148" y1="-170.2255" x2="386.0711" y2="-126.7929" gradientTransform="matrix(0.3882 0 0 0.3882 892.2204 490.5099)">
						<stop  offset="0" style="stop-color:#881537"/>
						<stop  offset="1" style="stop-color:#532063"/>
					</linearGradient>
					<path style="fill:url(#SVGID_00000029753341208060284370000007389986818935144361_);" d="M1056.03,422.52
						c11.09,0.83,12,18.68,4.85,23.29c-5.32,3.43-9.09-0.04-14.36-0.39c-6.91-0.45-14.2,0.34-21.15,0
						c-1.23-0.44-3.69-12.16-4.27-14.36c4.02-0.36,13.39,0.49,15.72,0C1039.35,430.53,1048.38,421.95,1056.03,422.52z"/>
				</g>
				
					<linearGradient id="SVGID_00000007404686809061984600000007983558713988677766_" gradientUnits="userSpaceOnUse" x1="-326.5481" y1="-168.2613" x2="-215.528" y2="-147.2007" gradientTransform="matrix(0.3882 0 0 0.3882 892.2204 490.5099)">
					<stop  offset="0" style="stop-color:#C63426"/>
					<stop  offset="1" style="stop-color:#941A1D"/>
				</linearGradient>
				<path style="fill:url(#SVGID_00000007404686809061984600000007983558713988677766_);" d="M802.95,374
					c-5.67,18.65-12.13,35.56-13.97,55.12c-1.29,13.73-0.92,18.93,2.72,32.22c2.93,10.69,8.04,20,12.03,30.28
					c-2.65,2.03-5.47,3.86-8.15,5.82c-27.86,3.43-32.54-31.76-27.56-52.01c1.19-4.82,3.91-9.4,4.66-14.36
					c9.87-10.11,0.24-3.46-3.88-13.78c-6.01-15.06,2.91-39.78,11.26-52.98c0.73-1.16,1.92-2.75,1.94-3.88
					C789.04,364.86,795.95,369.49,802.95,374z"/>
				<g>
					<g>
						<path class="st24" d="M842.54,540.13c-5.8,10.23-9.79,27.02-12.81,34.16c-1.37,3.23-1.29,5.42-8.15,4.66
							c0.27-1.28,1.99-0.47,2.33-0.97c1.01-1.48-0.91-24.76-1.94-28.53c2.56-3.75,3.4-8.51,5.43-12.42c1.93-3.72,5.79-6.97,6.6-8.93
							C837.06,531.16,840.06,537.09,842.54,540.13z"/>
						<path class="st26" d="M821.58,578.95c-4.54-0.51-15.98-5.85-17.86-10.09c-2.86-6.45,3.41-5.82,11.06-12.03
							c1.44-1.17,6.25-6.01,7.18-7.38c1.03,3.77,2.95,27.05,1.94,28.53C823.57,578.48,821.86,577.67,821.58,578.95z"/>
					</g>
					<g>
						<path class="st24" d="M808.77,500.15c0.96,1.59,4.02,7.49,5.05,8.15c-9.29,7.09-19.65,12.8-28.72,20.18
							c-9.65,7.85-15.24,15.86-16.3,16.3c-2.48,1.04-4.63,0.52-6.6-0.78c1.55-6.21,1.55-6.21,3.11-12.42
							C780.66,522.31,794.19,510.39,808.77,500.15z"/>
						<path class="st25" d="M757.93,518.4c3.69,6.6,3.69,6.6,7.38,13.2c-1.55,6.21-1.55,6.21-3.11,12.42
							c-3.38-2.23-11.86-20.33-11.64-22.32c0.07-0.65,1.12-1.28,1.16-1.36C753.66,519.35,755.9,519.08,757.93,518.4z"/>
						<path class="st26" d="M808,498.99c0.24,0.42,0.52,0.75,0.78,1.16c-14.59,10.23-28.11,22.15-43.47,31.44
							c-3.69-6.6-3.69-6.6-7.38-13.2c13.94-4.71,25.85-12.34,37.65-20.96c2.69-1.96,5.51-3.8,8.15-5.82
							C805.51,493.82,806.59,496.54,808,498.99z"/>
					</g>
				</g>
				
					<linearGradient id="SVGID_00000080168381390935993310000016494427911446353085_" gradientUnits="userSpaceOnUse" x1="-66.8963" y1="81.3043" x2="-108.0257" y2="134.1945" gradientTransform="matrix(0.3882 0 0 0.3882 892.2204 490.5099)">
					<stop  offset="0" style="stop-color:#5C0523"/>
					<stop  offset="1" style="stop-color:#9A1B1F"/>
				</linearGradient>
				<path style="fill:url(#SVGID_00000080168381390935993310000016494427911446353085_);" d="M842.16,520.34
					c13.29,8.8,24.18,11.34,39.98,12.42c2.11,0.14,4.08,0.32,6.21,0.39c2.96,9.76,2.62,12.17,2.33,21.35
					c-14.15,16.1-37.74-1.65-48.13-14.36c-2.49-3.04-5.49-8.97-8.54-12.03c0.18-0.43,0.45-0.67,0.78-0.97
					c-3.36-5.79-5.4-12.19-7.76-18.44c0.49-0.19,0.49-0.19,0.97-0.39C832.24,512.93,836.94,516.88,842.16,520.34z"/>
				<g>
					<path class="st24" d="M902.71,570.02c1.4,8.6,1.56,3.53,4.66,7.76c9.45,12.91-18.79,17.71-22.13,5.05
						c-1.5-5.69,2.32-11.31,5.05-15.91c2.94-0.14,8.23,0.08,10.67,1.55C902.46,569.37,901.5,570.95,902.71,570.02z"/>
					<path class="st33" d="M899.22,533.15c-0.97,9.22-0.97,9.22-1.94,18.44c0.16,1.09,3.37,4.99,4.27,5.63
						c0.29,4.25,0.48,8.6,1.16,12.81c-1.21,0.93-0.25-0.65-1.75-1.55c-2.44-1.47-7.73-1.69-10.67-1.55
						c0.2-4.14,0.26-8.28,0.39-12.42c0.29-9.18,0.63-11.59-2.33-21.35C891.94,533.25,895.62,533.24,899.22,533.15z"/>
				</g>
				<g>
					
						<linearGradient id="SVGID_00000013889291304405027690000006567578372359018425_" gradientUnits="userSpaceOnUse" x1="87.5057" y1="88.128" x2="80.8744" y2="169.8593" gradientTransform="matrix(0.3882 0 0 0.3882 892.2204 490.5099)">
						<stop  offset="0" style="stop-color:#5E093A"/>
						<stop  offset="1" style="stop-color:#951A23"/>
					</linearGradient>
					<path style="fill:url(#SVGID_00000013889291304405027690000006567578372359018425_);" d="M944.63,542.46
						c-8.36,10.22-30.76,23.44-43.09,14.75c-0.9-0.63-4.11-4.54-4.27-5.63c0.97-9.22,0.97-9.22,1.94-18.44
						c16.96-0.43,41.63-3.95,54.34-16.3c-0.53,5.68-3.35,14.76-6.21,19.99C945.72,539.8,942.61,541.44,944.63,542.46z"/>
					<path class="st26" d="M977.24,508.3c-5.48,6.82-9.89,14.57-15.91,20.96c-3.87,4.1-8.47,7.66-12.81,11.26
						c-0.18,0.15,0.01-0.92-3.88,1.94c-2.02-1.02,1.1-2.66,2.72-5.63c2.86-5.23,5.68-14.31,6.21-19.99
						c8.76-8.52,4.05-17.89,13.39-16.69C970.67,500.63,974.75,505.63,977.24,508.3z"/>
				</g>
				<g>
					<g>
						<path class="st27" d="M830.9,288.61c-5.05,8.05-5.05,8.05-10.09,16.11c5.82,14.65,5.82,14.65,11.64,29.31
							c-1.02,0.91-2.11,3.21-3.11,2.33c-1.1-4.9-3-9.41-5.05-13.97c-8.76-19.54-13.23-13.53-19.02-19.02
							C793.37,292.06,826.07,281.8,830.9,288.61z"/>
						<path class="st24" d="M834.78,302.19c2.28,7.78,4.17,15.67,6.99,23.29c-0.51,0.37-7.57,6.98-9.32,8.54
							c-5.82-14.65-5.82-14.65-11.64-29.31c5.05-8.05,5.05-8.05,10.09-16.11C831.99,290.15,833.96,299.38,834.78,302.19z"/>
					</g>
					<g>
						<path class="st27" d="M773.45,320.44c0.29,0.5,0.47,1.07,0.78,1.55c-2.57,11.94-11.95,14.17-19.41,22.9
							c-1.78-1.01-3.41-0.67-4.27-3.11c-2.22-6.28,13.56-25.54,16.11-26.01C773.05,314.61,773.22,320.02,773.45,320.44z"/>
						<path class="st24" d="M784.71,334.41c8.36,7.8,22.06,16.18,26.39,20.18c1.33,1.23,2.31,3.01,3.49,4.27
							c-7.56,0.88-8.95,9.38-11.64,15.14c-7-4.51-13.91-9.15-20.96-13.59c-10.73-6.76-17-9.76-27.17-15.53
							c7.46-8.73,16.84-10.96,19.41-22.9C777.65,327.51,780.02,330.04,784.71,334.41z"/>
					</g>
				</g>
				<path class="st35" d="M827.02,508.69c2.36,6.25,4.4,12.65,7.76,18.44c-0.33,0.3-0.6,0.54-0.78,0.97
					c-0.81,1.96-4.67,5.21-6.6,8.93c-7.01,5.62-14.43,11.23-23.1,13.97c-1.09-0.77-0.35-1.66-0.19-3.11
					c0.67-6.17,8.04-30.64,10.48-39.2C818.99,509.58,822.62,509.58,827.02,508.69z"/>
				<path class="st22" d="M814.6,508.69c-2.44,8.57-9.81,33.03-10.48,39.2c-6.82-5.93-14.01-11.85-19.02-19.41
					c9.08-7.38,19.43-13.09,28.72-20.18C814.04,508.45,814.33,508.63,814.6,508.69z"/>
				<g>
					<path class="st35" d="M944.24,324.32c0.21,0.04,3.7,1.82,3.88,1.94c0.33,0.22,5.13,4.75,5.82,5.43
						c1.48,1.46,3.37,4.98,5.82,5.82c-0.04,0.63-1.12,0.32,1.16,2.72c-0.44,0.58-1.03-0.47-1.55,0.19
						c-0.28,0.35-3.17,7.43-3.49,8.35c-3.49-3.3-3.49-3.3-6.99-6.6c-6.58-6.52-14.64-11.13-22.9-15.14
						C929.07,325.83,942.3,323.91,944.24,324.32z"/>
					<path class="st27" d="M978.4,355.37c-0.54,0.49-1.04,1.07-1.55,1.55c-3.53,3.27-7.23,6.33-10.48,9.9
						c-1.98,7.23-7.67,16.63-12.81,5.24c0.26-9.84-1.33-13.03,2.33-23.29c0.33-0.92,3.21-7.99,3.49-8.35
						c0.53-0.66,1.11,0.39,1.55-0.19c1.66-2.21,3.53-8.65,11.45-3.11C978.4,341.34,977.85,348.97,978.4,355.37z"/>
				</g>
				<path class="st35" d="M860.79,327.03c-11.17,5.24-22.69,12.02-28.72,23.29c-2.27,2.34-2.4-8-2.72-13.2c0-0.39,0-0.39,0-0.78
					c0.99,0.88,2.09-1.42,3.11-2.33c1.75-1.56,8.81-8.17,9.32-8.54c0.23-0.17,3.55-1.73,5.05-2.72
					C853.8,324.9,853.8,324.9,860.79,327.03z"/>
				<g>
					
						<linearGradient id="SVGID_00000031183884386843017410000011794996770997808777_" gradientUnits="userSpaceOnUse" x1="73.5799" y1="-500.8185" x2="79.9813" y2="-433.1204" gradientTransform="matrix(0.3882 0 0 0.3882 892.2204 490.5099)">
						<stop  offset="0" style="stop-color:#BE2B26"/>
						<stop  offset="1" style="stop-color:#A01C20"/>
					</linearGradient>
					<path style="fill:url(#SVGID_00000031183884386843017410000011794996770997808777_);" d="M903.1,294.43
						c8.15-1.55,25.16,4.66,32.22,9.32c6.31,4.16,15.45,12.84,8.93,20.57c-1.94-0.41-15.17,1.51-18.24,2.72
						c-2.43-0.26-4.67-1.23-6.99-1.94c-1.1-0.34-2.18-1.19-3.3-1.55c-4.47-0.73-8.89-1.79-13.39-2.33
						c-4.02-0.48-2.55-0.76-2.72-0.78C901.61,311.09,896.95,295.6,903.1,294.43z"/>
					
						<linearGradient id="SVGID_00000179645075797563412740000014580886634987454601_" gradientUnits="userSpaceOnUse" x1="-68.0002" y1="-479.2301" x2="-47.8785" y2="-434.5522" gradientTransform="matrix(0.3882 0 0 0.3882 892.2204 490.5099)">
						<stop  offset="0" style="stop-color:#BE2C26"/>
						<stop  offset="1" style="stop-color:#A71D22"/>
					</linearGradient>
					<path style="fill:url(#SVGID_00000179645075797563412740000014580886634987454601_);" d="M887.57,294.82
						c1.83,0.36,2.07,1.97,2.33,3.88c0.61,4.42-0.45,15.84,0,21.74c-8.49,0.38-21.23,3.12-29.11,6.6
						c-6.99-2.13-6.99-2.13-13.97-4.27C846.82,307.9,875.22,292.38,887.57,294.82z"/>
				</g>
				<path class="st38" d="M829.35,337.13c0.32,5.2,0.45,15.53,2.72,13.2c1.62,3.93,5.43,26.27-0.58,26.78
					c-1.83,0.16-14.64-15.85-16.88-18.24c-1.18-1.26-2.17-3.04-3.49-4.27C810.89,345.46,819.42,331.26,829.35,337.13z"/>
				<g>
					<path class="st39" d="M1001.69,417.09c2.67,9.84,3.63,21.12,2.33,31.25c-0.68,5.25-3.26,10.24-3.88,15.53
						c-2.96,5.26-4.55,11.22-6.99,16.69c-0.69,1.55-2.47,3.72-3.11,5.05c-0.25,0.53-2.33,7.22-2.72,7.96
						c-0.06,0.12-0.83-0.28-1.94,1.75c-2.44,4.47-4.24,9.21-7.76,13c-0.19,0-0.19,0-0.39,0c-2.49-2.68-6.57-7.67-10.29-8.15
						c-9.35-1.2-4.63,8.18-13.39,16.69c-12.71,12.35-37.38,15.87-54.34,16.3c-3.59,0.09-7.28,0.11-10.87,0
						c-2.13-0.06-4.1-0.24-6.21-0.39c7.47-0.27,0.06-7.45,2.91-11.64c11.37,3.53,26.97,0.22,32.02-11.64
						c3.13-7.35,1.06-13.53,0.78-21.15c15.53-12.91,15.53-12.91,31.05-25.81c37.33,17.8,49.39-50.82,10.09-49.3
						c-0.8-2.34-5.98-3.3-5.82-5.82c3.84,1.06,12.05-0.02,13,2.72c0.62,0.17,1.65-0.73,2.72-0.39c3.88,1.25,10.04,6.56,24.45,6.21
						c6.12-5.71,4.33-1.59,4.85-0.58C999.11,417.1,999.94,415.01,1001.69,417.09z"/>
					<path class="st40" d="M899.6,320.44c0.17,0.01-1.3,0.29,2.72,0.78c0.21,0.92-2.13,1.27-2.33,1.75
						c-0.31,0.77,0.6,5.22-3.88,15.91c-0.21,0.51-1.57,0.8-1.55,1.16c0.07,1.38,3.49-0.28,3.11,1.36
						c-13.97-1.51-29.09,4.92-30.66,20.18c-0.74,7.2-2.09,10.13,14.56,1.16c7.3-3.93,19.38-12.27,21.93-20.18
						c0.7,0.25,1.63,0.79,2.33,1.16c0.72,0.38,1.29,0.65,1.94,1.16c-6.28,15.13-30.08,20.39-32.22,35.32
						c-11.14,8.9-28.65,24.05-39.2,31.05c-1.06,0.7-2.29,1.31-3.11,2.33c-0.49,0.07-1.05-0.04-1.55,0
						c-0.82,0.07-1.94,0.24-2.72,0.58c-0.43,1.15,2.09,15.1,1.55,24.45c-0.5,8.76-4.18,17.4-3.49,26.2
						c-1.82,0.09-3.02-0.66-4.66-1.16c-0.04-0.76,1.14,0.53,1.55-0.19c0.8-1.4,2.47-27.12,2.33-30.66
						c-0.24-6.24-1.53-12.22-3.11-18.24c-1.2-0.59-2.35,0.01-3.49,0.19c-8.18,1.28-12.53,9.2-13.59,16.69
						c-1.72-4.92-0.14,2.22-5.24-2.33c-5.92,0-5.92,0-11.84,0c1.84-19.56,8.3-36.47,13.97-55.12c2.7-5.76,4.08-14.25,11.64-15.14
						c2.25,2.4,15.05,18.4,16.88,18.24c6.02-0.51,2.2-22.85,0.58-26.78c6.03-11.27,17.55-18.05,28.72-23.29
						c7.89-3.48,20.63-6.22,29.11-6.6C892.47,320.32,897.22,320.24,899.6,320.44z"/>
					<path class="st41" d="M926,327.03c8.26,4.01,16.32,8.62,22.9,15.14c2.1,2.08,4,4.42,6.21,6.4c-3.03,10.23-2.62,6.03-4.46,6.79
						c-0.58,0.24-0.58,1.25-1.16,1.55c-4.03,0.46-7.94-1.53-11.64,1.16c-3.97-1.37-11.06-0.8-14.36-1.55
						c-3.86-0.88-8.99-6.43-10.48-5.43c-5.68,6.9-20.14,15.92-23.87,23.48c-2.4,4.87-4.99,19.15,1.94,18.44
						c1.23-0.13,0.72-0.7,1.94-1.16c0,7.57,0,7.57,0,15.14c-1.48-0.61-3.78-0.46-5.43-0.39c-8.84,0.38-14.14,1.86-19.02,9.9
						c-2.02,3.32-3.63,8.37-4.27,12.23c-2.36,3.65-0.15,2-4.46,2.33c-1.5-1.82-4.76-5.4-6.79-5.43c-1.95-4.42-5.19-6.58-9.32-8.54
						c-1.87-0.89-3.38-2.11-5.63-2.33c-1.24,0.48-2.12,22.24-2.52,25.42c-0.53,4.18-4.81,22.32-3.88,24.45
						c1.02,0.61,2.04,0.24,3.11,0.19c2.02-0.08,3.29-0.67,5.05-1.16c3.18,4.37,11.45,9.94,14.36,13.78
						c0.18,0.23-1.26,0.22,2.72,4.66c-2.68,0.35-4.3,0.21-6.02,2.52c-2.44,0.34-9.94,1.28-10.87,1.55c-2.63,0.77-5.14,3.4-8.54,2.72
						c-4.44,4.06-11.84,4.79-15.14,9.7c-5.67-0.05-1.96,4.47-8.35,0.39c-1.41-2.45-2.49-5.17-4.27-7.38
						c-4-10.28-9.11-19.59-12.03-30.28c1.96,0.09-0.29-3.98,2.13-6.99c-0.09,4.14,9.84,0.47,10.48-0.78
						c0.32-0.62-2.29-2.25-0.39-3.11c2.24-1.01,3.36,5.38,4.08,0.39c2.23,5.44,6.94,10.17,12.42,12.42
						c0.76,0.31,1.68,0.31,1.94,0.39c1.64,0.51,2.84,1.25,4.66,1.16c0.03,0-0.11,0.51,0.58,0.39c4.01-16.75,5.59-34.27,4.08-51.63
						c0.51-0.04,1.06,0.07,1.55,0c1.29-0.18,3.32,1.45,3.11-2.33c10.56-7.01,28.07-22.15,39.2-31.05c0.14-0.11,0.62,0.37,3.11-1.75
						c4.76-11.38,25.41-21.2,30.28-28.72c1.9-2.93,0.99-3.14-1.16-4.85c-0.65-0.52-1.22-0.78-1.94-1.16
						c-1.53-6.74,5.01-5.39,5.43-11.84c3.26-2.13,2.54-5.07,4.85-6.02c0.85-0.35,3.18,0.7,2.91-0.78
						C921.32,325.8,923.56,326.77,926,327.03z"/>
					<path class="st42" d="M919.01,325.09c0.27,1.48-2.06,0.43-2.91,0.78c-2.32,0.95-1.59,3.88-4.85,6.02
						c-0.42,6.45-6.96,5.1-5.43,11.84c-0.7-0.37-1.62-0.91-2.33-1.16c-1.18-0.42-3.07-0.97-4.27-1.16c-0.5-0.08-1.05,0.05-1.55,0
						c0.39-1.64-3.04,0.02-3.11-1.36c-0.02-0.37,1.34-0.66,1.55-1.16c4.48-10.69,3.57-15.15,3.88-15.91
						c0.2-0.48,2.54-0.83,2.33-1.75c4.51,0.54,8.92,1.6,13.39,2.33C916.83,323.9,917.91,324.76,919.01,325.09z"/>
					<path class="st39" d="M982.28,363.52c0.18,3.93,2.54,7.46,3.88,10.87c1.19,3.02,1.77,8.32,3.88,10.67
						c2.68,11.04,8.68,21.11,11.64,32.02c-1.75-2.08-2.58,0.01-3.49-1.75c-0.53-1.01,1.27-5.12-4.85,0.58
						c-14.42,0.35-20.57-4.96-24.45-6.21c-1.07-0.34-2.1,0.56-2.72,0.39c-0.95-2.74-9.16-1.66-13-2.72c-0.04-6.6,0.05-13.2,0-19.8
						c-0.04-5.22,0.25-10.33,0.39-15.53c5.14,11.39,10.83,1.99,12.81-5.24c3.25-3.57,6.95-6.63,10.48-9.9
						C979.56,360.22,979.56,360.22,982.28,363.52z"/>
					<path class="st43" d="M864.28,428.73c-1.42,8.56-0.21,16.86,5.43,23.87c6.05,7.51,14.73,7.1,23.68,7.18
						c0,15.91,0,15.91,0,31.83c-0.37-0.3-0.34,1.1-0.78,0.58c1.3-10.48-1.21-10.17-6.6-2.33c-3.34,4.86-6.5,14.78-5.82,20.57
						c0.47,4,4.3,6.12,3.88,10.48c-3.86-0.68-6.52-2.75-9.32-5.24c2.68-1.74,1.19-5.47,1.55-8.73c0.67-6.03,6.06-32.8,12.23-34.35
						c0.82-0.2,3.98,0.38,4.08,0.19c-0.08-14.52,1.71-17.57-8.54-6.99c-10.19,10.52-21.63,26.97-15.53,42.12
						c-6.55,3.03-16.38,4.79-22.32,8.93c-0.31,0.21,0.15,1.65-4.08,3.49c-5.22-3.46-9.91-7.4-14.17-12.03
						c-0.49,0.19-0.49,0.19-0.97,0.39c-4.4,0.89-8.03,0.89-12.42,0c-0.26-0.06-0.56-0.25-0.78-0.39c-1.02-0.66-4.08-6.56-5.05-8.15
						c-0.25-0.42-0.53-0.74-0.78-1.16c6.39,4.08,2.68-0.44,8.35-0.39c3.3-4.91,10.7-5.65,15.14-9.7c3.4,0.68,5.91-1.95,8.54-2.72
						c0.93-0.27,8.43-1.21,10.87-1.55c1.72-2.31,3.34-2.18,6.02-2.52c-3.97-4.44-2.54-4.43-2.72-4.66
						c-2.91-3.84-11.18-9.41-14.36-13.78c16.11-4.55,19.29-24.24,13.2-38.04c2.04,0.03,5.29,3.61,6.79,5.43
						C864.13,430.74,861.92,432.38,864.28,428.73z"/>
					<path class="st42" d="M806.06,431.45c-0.91,6.47-0.56,13.31,1.94,19.41c-0.71,4.99-1.84-1.4-4.08-0.39
						c-1.9,0.86,0.71,2.48,0.39,3.11c-0.64,1.25-10.57,4.92-10.48,0.78c-2.43,3-0.17,7.07-2.13,6.99
						c-3.64-13.28-4.01-18.49-2.72-32.22c5.92,0,5.92,0,11.84,0C805.92,433.66,804.34,426.52,806.06,431.45z"/>
					<path class="st39" d="M957.44,413.21c-9.46,0.85-18.51,7.18-20.18,16.88c-2.03,11.8-0.37,26.68,11.64,32.41
						c-15.53,12.91-15.53,12.91-31.05,25.81c0.29,7.62,2.35,13.81-0.78,21.15c0.42-1.63-2.97-2.13-4.46-3.11
						c-0.89-0.58-4.38-3.67-6.99-5.05c-9.09-4.79-12.8-2.14-11.06-8.54c0.02-0.07,1.02,0.18,1.16-0.19
						c0.88-2.26,0.1-27.24,0.39-32.8c0.15,0,2.7-0.77,2.91-0.78c10.59-0.54,17.06,1.29,23.48-10.29c5.53-9.96,4.71-22.39-1.16-32.02
						c1.07-0.65-1.85-3.63-3.49-5.63c4.84-5.04-13.24-15.76-14.36-17.47c-4.52-6.91,10.73-25.36,12.23-25.42
						c2.9-0.13-0.65,7.45,4.08,13.78c0.69,0.93,14.99,13.41,17.27,15.33C943.63,402.83,950.5,408.14,957.44,413.21z"/>
					
						<linearGradient id="SVGID_00000100346075820442124020000007799403086094291092_" gradientUnits="userSpaceOnUse" x1="124.6008" y1="-155.0898" x2="219.5405" y2="-112.6343" gradientTransform="matrix(0.3882 0 0 0.3882 892.2204 490.5099)">
						<stop  offset="0" style="stop-color:#292B74"/>
						<stop  offset="1" style="stop-color:#34266F"/>
					</linearGradient>
					<path style="fill:url(#SVGID_00000100346075820442124020000007799403086094291092_);" d="M958.99,413.21
						c39.3-1.52,27.24,67.1-10.09,49.3c-12.02-5.73-13.67-20.61-11.64-32.41c1.67-9.7,10.73-16.03,20.18-16.88
						C957.95,413.16,958.48,413.23,958.99,413.21z"/>
					<path class="st45" d="M953.17,387.59c0.05,6.6-0.04,13.2,0,19.8c-0.16,2.52,5.02,3.49,5.82,5.82c-0.51,0.02-1.04-0.05-1.55,0
						c-6.94-5.07-13.81-10.38-20.38-15.91c-2.28-1.92-16.58-14.41-17.27-15.33c-4.73-6.33-1.17-13.91-4.08-13.78
						c-1.49,0.07-16.75,18.51-12.23,25.42c1.12,1.71,19.2,12.42,14.36,17.47c1.64,1.99,4.56,4.98,3.49,5.63
						c-6.11-10.02-14.36-10.29-25.23-10.09c0-8.05,0-8.05,0-16.11c-0.18-0.34-2.11,0.98-3.11,1.36c-1.22,0.47-0.71,1.04-1.94,1.16
						c-0.1-2.38-0.69-4.78-0.39-7.18c0.23-1.86,3.43-11.8,4.27-13.2c1.42-2.36,18.75-18.38,20.38-18.44
						c2.24-0.07,1.81,4.34,2.13,4.85c0.16,0.26,1.59,0.31,1.94,0.78c10.48,13.86,8.2,9.24,18.44,15.33
						c3.81,2.27,6.68,5.14,12.42,7.76C952.51,383.96,952.57,380.75,953.17,387.59z"/>
					<g>
						<path class="st46" d="M897.66,341.4c0.5,0.05,1.06-0.08,1.55,0c-0.71,4.63-11.28,14.09-15.33,16.3
							c-4.43,2.42-11.83,4.7-16.88,3.88C868.57,346.32,883.69,339.89,897.66,341.4z"/>
						<path class="st47" d="M903.48,342.56c-2.55,7.91-14.64,16.25-21.93,20.18c-16.64,8.97-15.3,6.04-14.56-1.16
							c5.06,0.82,12.45-1.46,16.88-3.88c4.05-2.21,14.62-11.67,15.33-16.3C900.41,341.59,902.31,342.14,903.48,342.56z"/>
						<path class="st42" d="M875.54,380.21c2.13-14.93,25.93-20.19,32.22-35.32c2.16,1.71,3.06,1.92,1.16,4.85
							c-4.86,7.52-25.51,17.34-30.28,28.72C876.15,380.59,875.68,380.1,875.54,380.21z"/>
					</g>
					<path class="st41" d="M833.23,413.59c0.81-1.02,2.04-1.62,3.11-2.33C836.55,415.04,834.52,413.41,833.23,413.59z"/>
					<path class="st43" d="M955.89,348.77c-3.66,10.26-2.07,13.45-2.33,23.29c-0.14,5.2-0.43,10.31-0.39,15.53
						c-0.6-6.84-0.65-3.63-2.91-4.66c-5.74-2.62-8.61-5.5-12.42-7.76c-10.24-6.09-7.96-1.47-18.44-15.33
						c-0.35-0.47-1.78-0.52-1.94-0.78c-0.32-0.52,0.11-4.93-2.13-4.85c-1.63,0.05-18.95,16.08-20.38,18.44
						c-0.84,1.4-4.04,11.34-4.27,13.2c-0.3,2.4,0.29,4.8,0.39,7.18c-6.94,0.71-4.34-13.57-1.94-18.44
						c3.73-7.56,18.19-16.59,23.87-23.48c1.49-1,6.62,4.55,10.48,5.43c3.3,0.76,10.39,0.18,14.36,1.55c3.7-2.7,7.62-0.7,11.64-1.16
						c0.59-0.3,0.59-1.31,1.16-1.55c1.84-0.77,1.44,3.44,4.46-6.79c-2.21-1.99-4.11-4.32-6.21-6.4
						C952.39,345.47,952.39,345.47,955.89,348.77z"/>
					<g>
						<path class="st46" d="M819.64,414.76c6.58,16.09,2.88,30.64,2.33,47.16c-0.78,0.68-0.78,0.68-1.55,1.36
							c-5.48-2.25-10.19-6.98-12.42-12.42c-2.5-6.1-2.85-12.94-1.94-19.41C807.11,423.95,811.46,416.04,819.64,414.76z"/>
						<path class="st47" d="M822.36,463.67c-0.26-0.08-1.18-0.08-1.94-0.39c0.78-0.68,0.78-0.68,1.55-1.36
							c0.55-16.52,4.25-31.07-2.33-47.16c1.15-0.18,2.29-0.79,3.49-0.19c1.57,6.02,2.87,12.01,3.11,18.24
							c0.14,3.54-1.53,29.27-2.33,30.66C823.5,464.2,822.32,462.91,822.36,463.67z"/>
						<path class="st42" d="M831.68,413.59c1.52,17.35-0.07,34.88-4.08,51.63c-0.69,0.12-0.55-0.39-0.58-0.39
							c-0.69-8.8,2.99-17.44,3.49-26.2c0.53-9.35-1.99-23.31-1.55-24.45C829.74,413.83,830.86,413.67,831.68,413.59z"/>
						<path class="st45" d="M853.02,425.63c6.09,13.8,2.91,33.49-13.2,38.04c-1.76,0.5-3.02,1.08-5.05,1.16
							c-1.05-0.7-0.85-1.41-0.78-2.52c0.14-2.02,3.7-16.14,4.66-21.35c1.45-7.9,0.92-16.65,5.05-23.87
							C847.83,419.05,851.07,421.21,853.02,425.63z"/>
						<path class="st43" d="M843.71,417.09c-4.12,7.22-3.59,15.97-5.05,23.87c-0.96,5.21-4.52,19.33-4.66,21.35
							c-0.08,1.11-0.27,1.82,0.78,2.52c-1.07,0.04-2.08,0.41-3.11-0.19c-0.93-2.14,3.35-20.28,3.88-24.45
							c0.41-3.18,1.28-24.94,2.52-25.42C840.33,414.98,841.84,416.2,843.71,417.09z"/>
					</g>
					<path class="st38" d="M896.11,406.61c-0.04,0,0.26,0.36-0.78,0.39c-0.76,0.02-1.55-0.04-2.33,0c0-7.57,0-7.57,0-15.14
						c0.99-0.38,2.93-1.69,3.11-1.36C896.11,398.55,896.11,398.55,896.11,406.61z"/>
					<g>
						<path class="st45" d="M893.39,491.61c0.06,0.05-0.2,1.23,1.16,1.16c-1.74,6.4,1.97,3.75,11.06,8.54
							c2.61,1.38,6.1,4.47,6.99,5.05c1.49,0.97,4.88,1.47,4.46,3.11c-5.05,11.87-20.65,15.17-32.02,11.64
							c-2.85,4.2,4.56,11.38-2.91,11.64c-15.8-1.08-26.7-3.62-39.98-12.42c4.23-1.85,3.77-3.28,4.08-3.49
							c5.94-4.13,15.77-5.89,22.32-8.93c1.14,2.82,3.96,5.76,6.21,7.76c2.8,2.49,5.46,4.56,9.32,5.24
							c0.42-4.36-3.41-6.48-3.88-10.48c-0.68-5.79,2.49-15.71,5.82-20.57c5.38-7.84,7.9-8.15,6.6,2.33
							C893.06,492.71,893.02,491.31,893.39,491.61z"/>
						<path class="st41" d="M874.76,515.68c-2.25-2-5.07-4.94-6.21-7.76c-6.1-15.14,5.33-31.59,15.53-42.12
							c10.25-10.59,8.46-7.53,8.54,6.99c-0.09,0.18-3.26-0.4-4.08-0.19c-6.17,1.55-11.55,28.32-12.23,34.35
							C875.95,510.21,877.44,513.94,874.76,515.68z"/>
					</g>
					<g>
						<path class="st35" d="M887.57,406.61c0.45,1.72,3.95,0.46,5.43,0.39c0.78-0.04,1.57,0.02,2.33,0c0,26.2,0,26.2,0,52.4
							c-1.57,0.02-1.82,0.39-1.94,0.39c-8.94-0.08-17.63,0.33-23.68-7.18c-5.64-7.01-6.85-15.31-5.43-23.87
							c0.64-3.85,2.25-8.9,4.27-12.23C873.43,408.46,878.73,406.99,887.57,406.61z"/>
						<path class="st38" d="M893,407c-1.49,0.08-4.98,1.34-5.43-0.39C889.23,406.54,891.52,406.38,893,407z"/>
						<path class="st38" d="M895.33,459.4c0.37,0,0.41,0.4,0.78,0.39c-0.29,5.56,0.49,30.54-0.39,32.8
							c-0.15,0.37-1.15,0.13-1.16,0.19c-1.37,0.06-1.1-1.11-1.16-1.16c0-15.91,0-15.91,0-31.83
							C893.51,459.79,893.76,459.41,895.33,459.4z"/>
						<path class="st27" d="M921.34,416.7c5.87,9.63,6.69,22.07,1.16,32.02c-6.43,11.58-12.9,9.74-23.48,10.29
							c-0.22,0.01-2.76,0.77-2.91,0.78c-0.37,0.01-0.41-0.39-0.78-0.39c0-26.2,0-26.2,0-52.4c1.03-0.02,0.73-0.39,0.78-0.39
							C906.98,406.41,915.23,406.68,921.34,416.7z"/>
					</g>
				</g>
			</g>
		</g>
	</g>
</g>
</svg>
